<?xml version="1.0" encoding="utf-8"?>
<!-- Generator: Adobe Illustrator 22.0.0, SVG Export Plug-In . SVG Version: 6.00 Build 0)  -->
<svg version="1.1" id="图层_1" xmlns="http://www.w3.org/2000/svg" xmlns:xlink="http://www.w3.org/1999/xlink" x="0px" y="0px"
	 width="321px" height="238.4px" viewBox="0 0 321 238.4" style="enable-background:new 0 0 321 238.4;" xml:space="preserve">
<style type="text/css">
	.st0{opacity:0.1;}
	.st1{fill:none;stroke:#000000;stroke-width:0.75;stroke-miterlimit:10;}
	.st2{fill:#FFFFFF;}
	.st3{fill:none;stroke:#E8E8E8;stroke-width:0.75;stroke-miterlimit:10;}
	.st4{fill:none;stroke:#BFBFBF;stroke-width:0.5;stroke-miterlimit:10;}
	.st5{fill:none;stroke:#BFBFBF;stroke-width:0.5;stroke-miterlimit:10;stroke-dasharray:3.0247,3.0247;}
	.st6{fill:url(#SVGID_1_);}
</style>
<g>
	<g class="st0">
		<path d="M317,85V8.5H7V85c7.7,0,14,6.3,14,14s-6.3,14-14,14v125h7.5c0-2.5,2-4.5,4.5-4.5s4.5,2,4.5,4.5h4c0-2.5,2-4.5,4.5-4.5
			s4.5,2,4.5,4.5h4c0-2.5,2-4.5,4.5-4.5s4.5,2,4.5,4.5h4c0-2.5,2-4.5,4.5-4.5s4.5,2,4.5,4.5h4c0-2.5,2-4.5,4.5-4.5s4.5,2,4.5,4.5h4
			c0-2.5,2-4.5,4.5-4.5s4.5,2,4.5,4.5h4c0-2.5,2-4.5,4.5-4.5s4.5,2,4.5,4.5h4c0-2.5,2-4.5,4.5-4.5s4.5,2,4.5,4.5h4
			c0-2.5,2-4.5,4.5-4.5s4.5,2,4.5,4.5h4c0-2.5,2-4.5,4.5-4.5s4.5,2,4.5,4.5h4c0-2.5,2-4.5,4.5-4.5s4.5,2,4.5,4.5h4
			c0-2.5,2-4.5,4.5-4.5s4.5,2,4.5,4.5h4c0-2.5,2-4.5,4.5-4.5s4.5,2,4.5,4.5h4c0-2.5,2-4.5,4.5-4.5s4.5,2,4.5,4.5h4
			c0-2.5,2-4.5,4.5-4.5s4.5,2,4.5,4.5h4c0-2.5,2-4.5,4.5-4.5s4.5,2,4.5,4.5h4c0-2.5,2-4.5,4.5-4.5s4.5,2,4.5,4.5h4
			c0-2.5,2-4.5,4.5-4.5s4.5,2,4.5,4.5h4c0-2.5,2-4.5,4.5-4.5s4.5,2,4.5,4.5h4c0-2.5,2-4.5,4.5-4.5s4.5,2,4.5,4.5h4
			c0-2.5,2-4.5,4.5-4.5s4.5,2,4.5,4.5h4c0-2.5,2-4.5,4.5-4.5s4.5,2,4.5,4.5h4c0-2.5,2-4.5,4.5-4.5s4.5,2,4.5,4.5h7.5V113
			c-7.7,0-14-6.3-14-14S309.3,85,317,85z"/>
		<path class="st1" d="M317,85V8.5H7V85c7.7,0,14,6.3,14,14s-6.3,14-14,14v125h7.5c0-2.5,2-4.5,4.5-4.5s4.5,2,4.5,4.5h4
			c0-2.5,2-4.5,4.5-4.5s4.5,2,4.5,4.5h4c0-2.5,2-4.5,4.5-4.5s4.5,2,4.5,4.5h4c0-2.5,2-4.5,4.5-4.5s4.5,2,4.5,4.5h4
			c0-2.5,2-4.5,4.5-4.5s4.5,2,4.5,4.5h4c0-2.5,2-4.5,4.5-4.5s4.5,2,4.5,4.5h4c0-2.5,2-4.5,4.5-4.5s4.5,2,4.5,4.5h4
			c0-2.5,2-4.5,4.5-4.5s4.5,2,4.5,4.5h4c0-2.5,2-4.5,4.5-4.5s4.5,2,4.5,4.5h4c0-2.5,2-4.5,4.5-4.5s4.5,2,4.5,4.5h4
			c0-2.5,2-4.5,4.5-4.5s4.5,2,4.5,4.5h4c0-2.5,2-4.5,4.5-4.5s4.5,2,4.5,4.5h4c0-2.5,2-4.5,4.5-4.5s4.5,2,4.5,4.5h4
			c0-2.5,2-4.5,4.5-4.5s4.5,2,4.5,4.5h4c0-2.5,2-4.5,4.5-4.5s4.5,2,4.5,4.5h4c0-2.5,2-4.5,4.5-4.5s4.5,2,4.5,4.5h4
			c0-2.5,2-4.5,4.5-4.5s4.5,2,4.5,4.5h4c0-2.5,2-4.5,4.5-4.5s4.5,2,4.5,4.5h4c0-2.5,2-4.5,4.5-4.5s4.5,2,4.5,4.5h4
			c0-2.5,2-4.5,4.5-4.5s4.5,2,4.5,4.5h4c0-2.5,2-4.5,4.5-4.5s4.5,2,4.5,4.5h4c0-2.5,2-4.5,4.5-4.5s4.5,2,4.5,4.5h4
			c0-2.5,2-4.5,4.5-4.5s4.5,2,4.5,4.5h7.5V113c-7.7,0-14-6.3-14-14S309.3,85,317,85z"/>
	</g>
	<g>
		<path class="st2" d="M317,85V8.5H7V85c7.7,0,14,6.3,14,14s-6.3,14-14,14v125h7.5c0-2.5,2-4.5,4.5-4.5s4.5,2,4.5,4.5h4
			c0-2.5,2-4.5,4.5-4.5s4.5,2,4.5,4.5h4c0-2.5,2-4.5,4.5-4.5s4.5,2,4.5,4.5h4c0-2.5,2-4.5,4.5-4.5s4.5,2,4.5,4.5h4
			c0-2.5,2-4.5,4.5-4.5s4.5,2,4.5,4.5h4c0-2.5,2-4.5,4.5-4.5s4.5,2,4.5,4.5h4c0-2.5,2-4.5,4.5-4.5s4.5,2,4.5,4.5h4
			c0-2.5,2-4.5,4.5-4.5s4.5,2,4.5,4.5h4c0-2.5,2-4.5,4.5-4.5s4.5,2,4.5,4.5h4c0-2.5,2-4.5,4.5-4.5s4.5,2,4.5,4.5h4
			c0-2.5,2-4.5,4.5-4.5s4.5,2,4.5,4.5h4c0-2.5,2-4.5,4.5-4.5s4.5,2,4.5,4.5h4c0-2.5,2-4.5,4.5-4.5s4.5,2,4.5,4.5h4
			c0-2.5,2-4.5,4.5-4.5s4.5,2,4.5,4.5h4c0-2.5,2-4.5,4.5-4.5s4.5,2,4.5,4.5h4c0-2.5,2-4.5,4.5-4.5s4.5,2,4.5,4.5h4
			c0-2.5,2-4.5,4.5-4.5s4.5,2,4.5,4.5h4c0-2.5,2-4.5,4.5-4.5s4.5,2,4.5,4.5h4c0-2.5,2-4.5,4.5-4.5s4.5,2,4.5,4.5h4
			c0-2.5,2-4.5,4.5-4.5s4.5,2,4.5,4.5h4c0-2.5,2-4.5,4.5-4.5s4.5,2,4.5,4.5h4c0-2.5,2-4.5,4.5-4.5s4.5,2,4.5,4.5h4
			c0-2.5,2-4.5,4.5-4.5s4.5,2,4.5,4.5h7.5V113c-7.7,0-14-6.3-14-14S309.3,85,317,85z"/>
		<path class="st3" d="M317,85V8.5H7V85c7.7,0,14,6.3,14,14s-6.3,14-14,14v125h7.5c0-2.5,2-4.5,4.5-4.5s4.5,2,4.5,4.5h4
			c0-2.5,2-4.5,4.5-4.5s4.5,2,4.5,4.5h4c0-2.5,2-4.5,4.5-4.5s4.5,2,4.5,4.5h4c0-2.5,2-4.5,4.5-4.5s4.5,2,4.5,4.5h4
			c0-2.5,2-4.5,4.5-4.5s4.5,2,4.5,4.5h4c0-2.5,2-4.5,4.5-4.5s4.5,2,4.5,4.5h4c0-2.5,2-4.5,4.5-4.5s4.5,2,4.5,4.5h4
			c0-2.5,2-4.5,4.5-4.5s4.5,2,4.5,4.5h4c0-2.5,2-4.5,4.5-4.5s4.5,2,4.5,4.5h4c0-2.5,2-4.5,4.5-4.5s4.5,2,4.5,4.5h4
			c0-2.5,2-4.5,4.5-4.5s4.5,2,4.5,4.5h4c0-2.5,2-4.5,4.5-4.5s4.5,2,4.5,4.5h4c0-2.5,2-4.5,4.5-4.5s4.5,2,4.5,4.5h4
			c0-2.5,2-4.5,4.5-4.5s4.5,2,4.5,4.5h4c0-2.5,2-4.5,4.5-4.5s4.5,2,4.5,4.5h4c0-2.5,2-4.5,4.5-4.5s4.5,2,4.5,4.5h4
			c0-2.5,2-4.5,4.5-4.5s4.5,2,4.5,4.5h4c0-2.5,2-4.5,4.5-4.5s4.5,2,4.5,4.5h4c0-2.5,2-4.5,4.5-4.5s4.5,2,4.5,4.5h4
			c0-2.5,2-4.5,4.5-4.5s4.5,2,4.5,4.5h4c0-2.5,2-4.5,4.5-4.5s4.5,2,4.5,4.5h4c0-2.5,2-4.5,4.5-4.5s4.5,2,4.5,4.5h4
			c0-2.5,2-4.5,4.5-4.5s4.5,2,4.5,4.5h7.5V113c-7.7,0-14-6.3-14-14S309.3,85,317,85z"/>
	</g>
</g>
<g>
	<g>
		<line class="st4" x1="35.8" y1="86.5" x2="37.3" y2="86.5"/>
		<line class="st5" x1="40.3" y1="86.5" x2="280.8" y2="86.5"/>
		<line class="st4" x1="282.3" y1="86.5" x2="283.8" y2="86.5"/>
	</g>
</g>
<g>
	<g>
		<line class="st4" x1="35.8" y1="146.5" x2="37.3" y2="146.5"/>
		<line class="st5" x1="40.3" y1="146.5" x2="280.8" y2="146.5"/>
		<line class="st4" x1="282.3" y1="146.5" x2="283.8" y2="146.5"/>
	</g>
</g>
<linearGradient id="SVGID_1_" gradientUnits="userSpaceOnUse" x1="160.5" y1="239.3333" x2="160.5" y2="232" gradientTransform="matrix(1 0 0 -1 0 240)">
	<stop  offset="0" style="stop-color:#409EFF"/>
	<stop  offset="1" style="stop-color:#0688FF"/>
</linearGradient>
<path class="st6" d="M316.5,9H4.5C2,9,0,7,0,4.5l0,0C0,2,2,0,4.5,0h312c2.5,0,4.5,2,4.5,4.5l0,0C321,7,319,9,316.5,9z"/>
</svg>
