<svg id="图层_1" data-name="图层 1" xmlns="http://www.w3.org/2000/svg" xmlns:xlink="http://www.w3.org/1999/xlink" width="50" height="50" viewBox="0 0 50 50"><defs><style>.cls-1{fill:url(#未命名的渐变);}.cls-2{fill:#fff;}</style><linearGradient id="未命名的渐变" y1="423" x2="50" y2="423" gradientTransform="translate(0 -398)" gradientUnits="userSpaceOnUse"><stop offset="0" stop-color="#06adff"/><stop offset="0.36" stop-color="#06a6ff"/><stop offset="0.87" stop-color="#0693ff"/><stop offset="1" stop-color="#068dff"/></linearGradient></defs><title>icon_meg</title><path class="cls-1" d="M45,50H5a5,5,0,0,1-5-5V5A5,5,0,0,1,5,0H45a5,5,0,0,1,5,5V45A5,5,0,0,1,45,50Z"/><path class="cls-2" d="M25,39.5a13,13,0,1,1,13-13A13,13,0,0,1,25,39.5Zm0-24.7A11.75,11.75,0,1,0,36.7,26.5,11.71,11.71,0,0,0,25,14.8Z"/><path class="cls-2" d="M20.5,12.1a.6.6,0,0,1,.4.1A6.4,6.4,0,0,0,16,9.4a6.57,6.57,0,0,0-7,6,6.87,6.87,0,0,0,1.8,5A9.25,9.25,0,0,1,20.5,12.1Z"/><path class="cls-2" d="M29.6,12h-.4a6.33,6.33,0,0,1,5-2.7,6.58,6.58,0,0,1,6.9,6.2,6.2,6.2,0,0,1-1.9,4.9A9.32,9.32,0,0,0,29.6,12Z"/><path class="cls-2" d="M25,28.5a1.16,1.16,0,0,1-1.2-1.2V18.6a1.2,1.2,0,1,1,2.4,0v8.7A1.16,1.16,0,0,1,25,28.5Z"/><path class="cls-2" d="M31.1,28.5H25a1.2,1.2,0,1,1,0-2.4h6.1a1.2,1.2,0,0,1,0,2.4Z"/><circle class="cls-2" cx="15" cy="37.8" r="2.9"/><circle class="cls-2" cx="35" cy="37.8" r="2.9"/></svg>