<svg xmlns="http://www.w3.org/2000/svg" width="15" height="13">
  <path fill="#FFF" fill-rule="evenodd" d="M7.475 8.305c.19.018.38-.047.518-.18l3.054-2.983a.612.612 0 0 0 0-.885.658.658 0 0 0-.91 0l-2.622 2.56-2.56-2.505a.647.647 0 0 0-.889.008.602.602 0 0 0-.006.862l3.01 2.944c.11.107.254.169.405.179zm7.19-4.363c.396.617.494 1.278 0 1.765L8.41 11.885a1.267 1.267 0 0 1-.893.365c-.337 0-.659-.132-.894-.365L.368 5.707c-.483-.476-.49-.984-.027-1.699.011-.016.038-.048.049-.065L2.05 1.234c.4-.503.88-.859 1.496-.859h7.846c.616 0 1.108.356 1.523.86l1.75 2.707z" opacity=".9"/>
</svg>
