<?xml version="1.0" encoding="utf-8"?>
<!-- Generator: Adobe Illustrator 22.0.0, SVG Export Plug-In . SVG Version: 6.00 Build 0)  -->
<svg version="1.1" id="图层_1" xmlns="http://www.w3.org/2000/svg" xmlns:xlink="http://www.w3.org/1999/xlink" x="0px" y="0px"
	 width="397.5px" height="45px" viewBox="0 0 397.5 45" style="enable-background:new 0 0 397.5 45;" xml:space="preserve">
<style type="text/css">
	.st0{fill:none;stroke:#FFFFFF;stroke-linecap:round;stroke-miterlimit:10;}
	.st1{fill:#FFFFFF;}
	.st2{fill:none;stroke:#FFFFFF;stroke-miterlimit:10;}
	.st3{fill:none;stroke:#FFFFFF;stroke-width:1.5;stroke-miterlimit:10;}
	.st4{fill:none;stroke:#FFFFFF;stroke-width:1.5;stroke-linecap:round;stroke-miterlimit:10;}
	.st5{fill:none;stroke:#FFFFFF;stroke-linecap:round;stroke-linejoin:round;stroke-miterlimit:10;}
	.st6{fill:url(#SVGID_1_);}
	.st7{fill:url(#SVGID_2_);}
	.st8{fill:none;stroke:#FFFFFF;stroke-width:1.5;stroke-linecap:round;stroke-linejoin:round;stroke-miterlimit:10;}
	.st9{fill:url(#SVGID_3_);}
	.st10{fill:url(#SVGID_4_);}
	.st11{fill:url(#SVGID_5_);}
	.st12{fill:url(#SVGID_6_);}
	.st13{fill:url(#SVGID_7_);}
	.st14{fill:url(#SVGID_8_);}
</style>
<g>
	<g>
		<path class="st0" d="M115.2,28.3c-1.2,0-2.3,0.9-2.6,2h-0.3c-1.4,0-2.6,1.2-2.6,2.6c0,1.4,1.2,2.6,2.6,2.6h1.8"/>
		<line class="st0" x1="114.1" y1="35.5" x2="115.6" y2="35.5"/>
	</g>
	<g>
		<path class="st0" d="M129.6,28.1c1.3,0,2.3,0.9,2.6,2.1h0.4c1.5,0,2.7,1.2,2.7,2.7s-1.2,2.7-2.7,2.7h-1.9"/>
		<line class="st0" x1="130.8" y1="35.5" x2="129.6" y2="35.5"/>
	</g>
	<g>
		<path class="st0" d="M126.8,25.9c0,1-0.8,1.8-1.8,1.8h-5.1c-1,0-1.8-0.8-1.8-1.8V11.7c0-1,1.3-6.1,4.4-6.1c2.8,0,4.4,5.1,4.4,6.1
			L126.8,25.9L126.8,25.9z"/>
		<line class="st0" x1="122.4" y1="27.8" x2="122.4" y2="19.4"/>
		<path class="st0" d="M118,27.4c0,1-4.9,0.8-4.8,0c0.6-2.4,0.6-2.1,1.2-4.8c0.2-1,0.8-1.8,1.7-1.8h0.2c1,0,1.7,0.8,1.7,1.8
			L118,27.4L118,27.4z"/>
		<path class="st0" d="M126.8,27.4c0,1,4.9,0.8,4.8,0c-0.6-2.4-0.6-2.1-1.1-4.8c-0.2-1-0.8-1.8-1.7-1.8h-0.2c-1,0-1.7,0.8-1.7,1.8
			V27.4L126.8,27.4z"/>
		<path class="st1" d="M123.1,11.3c0,0.6-0.4,1-1,1l0,0c-0.5,0-1-0.4-1-1v-1.1c0-0.6,0.4-1,1-1l0,0c0.5,0,1,0.4,1,1V11.3z"/>
	</g>
	<path class="st0" d="M121.4,37.5h5.3c1.9,0,3.4-1.5,3.4-3.4c0-1.9-1.5-3.4-3.4-3.4h-0.5c-0.4-1.5-1.7-2.6-3.4-2.6
		c-1.6,0-3,1.1-3.4,2.6H119c-1.9,0-3.4,1.5-3.4,3.4c0,1.9,1.5,3.4,3.4,3.4H121.4"/>
</g>
<g>
	<path class="st2" d="M234.8,16.2H233h-8.2c-0.5-0.7-1.3-1.9-1.7-2.4c-0.8-1.2-1.4-1.9-2.2-1.9c-0.8,0-2.4,0-2.4,0h-5.2h-0.4
		c-0.9,0-1,0.7-1.3,1.4c-0.5,0.9-0.3,0.5-0.5,1h-0.9c-0.9,0-1.6,0.7-1.6,1.6v14c0,0.8,0.6,1.5,1.4,1.6l6.6,0h11.8h6.4
		c0.9,0,1.6-0.7,1.6-1.6V17.3C236.4,16.4,235.7,16.2,234.8,16.2z"/>
	<path class="st1" d="M224.8,13.6c0,0,7.4,0,7.7,0c1.2,0,2.4,0.3,2.6,1.5c-0.9,0-1.9,0-3,0c-2.6,0-6.2,0-6.2,0L224.8,13.6z"/>
	<g>
		<path class="st1" d="M213.2,24.6l4.5,5.7l4.7-5.7h-2.7c0,0-0.5-4.5,3.5-7.5c-3.2,0.5-6.4,1.5-7.2,7.5
			C213.2,24.6,213.2,24.6,213.2,24.6z"/>
		<path class="st1" d="M231.7,27.6l-4.5-5.7l-4.7,5.7h2.7c0,0,0.5,4.5-3.5,7.5c3.2-0.5,6.4-1.5,7.2-7.5
			C231.7,27.6,231.7,27.6,231.7,27.6z"/>
	</g>
</g>
<g>
	<g>
		<path class="st3" d="M280.9,11h-17.7c-1.6,0-2.8,1.3-2.8,2.8v18.3c0,1.6,1.3,2.8,2.8,2.8h17.7c1.6,0,2.8-1.3,2.8-2.8V13.8
			C283.7,12.3,282.4,11,280.9,11z"/>
		<path class="st1" d="M278.3,13.5c0-0.2,0.2-0.4,0.4-0.4h1.1c0.2,0,0.4,0.2,0.4,0.4v1.1c0,0.2-0.2,0.4-0.4,0.4h-1.1
			c-0.2,0-0.4-0.2-0.4-0.4V13.5z"/>
		<path class="st1" d="M273.5,13.5c0-0.2,0.2-0.4,0.4-0.4h1.1c0.2,0,0.4,0.2,0.4,0.4v1.1c0,0.2-0.2,0.4-0.4,0.4h-1.1
			c-0.2,0-0.4-0.2-0.4-0.4V13.5z"/>
		<path class="st1" d="M268.7,13.5c0-0.2,0.2-0.4,0.4-0.4h1.1c0.2,0,0.4,0.2,0.4,0.4v1.1c0,0.2-0.2,0.4-0.4,0.4h-1.1
			c-0.2,0-0.4-0.2-0.4-0.4V13.5z"/>
		<path class="st1" d="M263.9,13.5c0-0.2,0.2-0.4,0.4-0.4h1.1c0.2,0,0.4,0.2,0.4,0.4v1.1c0,0.2-0.2,0.4-0.4,0.4h-1.1
			c-0.2,0-0.4-0.2-0.4-0.4V13.5z"/>
		<path class="st1" d="M265.8,32.3c0,0.2-0.2,0.4-0.4,0.4h-1.1c-0.2,0-0.4-0.2-0.4-0.4v-1.1c0-0.2,0.2-0.4,0.4-0.4h1.1
			c0.2,0,0.4,0.2,0.4,0.4V32.3z"/>
		<path class="st1" d="M270.6,32.3c0,0.2-0.2,0.4-0.4,0.4H269c-0.2,0-0.4-0.2-0.4-0.4v-1.1c0-0.2,0.2-0.4,0.4-0.4h1.1
			c0.2,0,0.4,0.2,0.4,0.4V32.3z"/>
		<path class="st1" d="M275.4,32.3c0,0.2-0.2,0.4-0.4,0.4h-1.1c-0.2,0-0.4-0.2-0.4-0.4v-1.1c0-0.2,0.2-0.4,0.4-0.4h1.1
			c0.2,0,0.4,0.2,0.4,0.4V32.3z"/>
		<path class="st1" d="M280.1,32.3c0,0.2-0.2,0.4-0.4,0.4h-1.1c-0.2,0-0.4-0.2-0.4-0.4v-1.1c0-0.2,0.2-0.4,0.4-0.4h1.1
			c0.2,0,0.4,0.2,0.4,0.4V32.3z"/>
		<path class="st3" d="M280.8,27.3c0,0.8-0.6,1.4-1.4,1.4h-14.7c-0.8,0-1.4-0.6-1.4-1.4v-9.2c0-0.8,0.6-1.4,1.4-1.4h14.7
			c0.8,0,1.4,0.6,1.4,1.4V27.3z"/>
	</g>
	<path class="st1" d="M274.8,21.6c-1.9-1-3.4-2-4.7-2.7c-0.4-0.2-1.7-0.4-1.7,0.8v5.9c0,0,0.3,1.7,1.8,1c1.7-1,4-1.9,5.1-2.8
		C275.7,23.4,276.3,22.5,274.8,21.6z"/>
</g>
<g>
	<path class="st3" d="M335.9,22.7c0,0.4-0.5,0.9-0.5,0.9l-11.9,11.3c-0.6,0.6-1.5,0.6-2,0l-12-11.4c0,0-0.3-0.4-0.4-0.8
		c0-0.4,0.2-1,0.2-1l3.1-6.7c0.3-0.8,0.7-1.4,1.5-1.4h16.5c0.8,0,1,0.4,1.5,1.4l3.6,6.7C335.6,21.7,336,22.3,335.9,22.7z"/>
	<g>
		<polyline class="st4" points="328.4,20.6 322.5,26.5 316.6,20.6 		"/>
	</g>
</g>
<g>
	<g>
		<path class="st2" d="M84.2,15.7l-0.1-2.4c0-0.5-0.4-0.9-0.9-0.9c0,0,0.2,0-1,0c-1.3,0-1.1-1.2-1.1-1.2c0-0.5-0.4-0.9-0.9-0.9h-5
			c-0.5,0-0.9,0.4-0.9,0.9c0,0,0.3,1.2-1.5,1.2c-1.5,0-2.8,0-2.8,0h-9.2c-0.5,0-0.9,0.4-0.9,0.9V32c0,0.5,0.4,0.9,0.9,0.9h22.8
			c0.5,0,0.9-0.4,0.9-0.9"/>
		<path class="st2" d="M86.5,17.5c0,0-0.2,0-1.3,0c-1.3,0-0.9-1.2-0.9-1.2c0.1-0.5-0.2-0.9-0.8-0.9h-5c-0.5,0-1,0.4-1.1,0.9
			c0,0,0.1,1.2-1.7,1.2c-1.5,0-2.8,0-2.8,0h-9.2c-0.5,0-1,0.4-1.1,0.9L59.7,32C59.6,32.5,60,33,60.5,33h22.8c0.5,0,1-0.4,1.1-0.9
			l2.8-13.6C87.4,17.9,87,17.5,86.5,17.5z"/>
	</g>
	<path class="st1" d="M71.4,28.8v7.8c0,0.1,0.1,0.2,0.2,0.2h3.7c0.1,0,0.2-0.1,0.2-0.2v-7.8c0-0.1,0.1-0.2,0.2-0.2h3.4
		c0.2,0,0.3-0.2,0.2-0.4l-5.7-6.3c-0.1-0.1-0.2-0.1-0.3,0l-5.7,6.3c-0.1,0.1,0,0.4,0.2,0.4h3.4C71.3,28.6,71.4,28.7,71.4,28.8z"/>
</g>
<g>
	<path class="st5" d="M187.3,22.5c-17.1-17.2-29.6,0-29.6,0S170.2,39.7,187.3,22.5z"/>
	<ellipse class="st1" cx="172.5" cy="22.5" rx="5.9" ry="5.9"/>
</g>
<g>
	<path class="st5" d="M24,27.3c0-0.8-0.7-1.5-1.5-1.5S21,26.5,21,27.3c0,0.5,0.3,1,0.6,1.2L21.1,32c0,0.2,0.1,0.3,0.3,0.3h2.2
		c0.2,0,0.3-0.1,0.3-0.3l-0.6-3.5C23.7,28.3,24,27.8,24,27.3z"/>
	<path class="st5" d="M30,31.6h1.2c4.3,0,7.8-3.5,7.8-7.8S35.5,16,31.2,16h-1c-0.8-3.5-4-6-7.7-6s-6.8,2.6-7.7,6h-1
		C9.5,16,6,19.5,6,23.8s3.5,7.8,7.8,7.8h1.4"/>
	<path class="st5" d="M27.8,35H17.2c-1.1,0-2-0.9-2-2v-7.9c0-1.1,0.9-2,2-2h10.7c1.1,0,2,0.9,2,2V33C29.8,34.1,28.9,35,27.8,35z"/>
	<path class="st5" d="M18.4,22.6v-1.8c0-2.3,1.9-4.1,4.1-4.1l0,0c2.3,0,4.1,1.9,4.1,4.1v1.8"/>
</g>
<g>
	<linearGradient id="SVGID_1_" gradientUnits="userSpaceOnUse" x1="272.5" y1="2" x2="272.5" y2="44.2404">
		<stop  offset="0" style="stop-color:#F8B699"/>
		<stop  offset="1" style="stop-color:#F14C04"/>
	</linearGradient>
	<circle class="st6" cx="272.5" cy="22.5" r="22.5"/>
	<g>
		<path class="st4" d="M281.3,11h-17.7c-1.6,0-2.8,1.3-2.8,2.8v18.3c0,1.6,1.3,2.8,2.8,2.8h17.7c1.6,0,2.8-1.3,2.8-2.8V13.8
			C284.2,12.3,282.9,11,281.3,11z"/>
		<g>
			<path class="st1" d="M278.9,14.2c0-0.3,0.2-0.5,0.5-0.5h1.6c0.3,0,0.5,0.2,0.5,0.5v1.6c0,0.3-0.2,0.5-0.5,0.5h-1.6
				c-0.3,0-0.5-0.2-0.5-0.5V14.2z"/>
			<path class="st1" d="M273.7,14.2c0-0.3,0.2-0.5,0.5-0.5h1.6c0.3,0,0.5,0.2,0.5,0.5v1.6c0,0.3-0.2,0.5-0.5,0.5h-1.6
				c-0.3,0-0.5-0.2-0.5-0.5V14.2z"/>
			<path class="st1" d="M268.6,14.2c0-0.3,0.2-0.5,0.5-0.5h1.6c0.3,0,0.5,0.2,0.5,0.5v1.6c0,0.3-0.2,0.5-0.5,0.5h-1.6
				c-0.3,0-0.5-0.2-0.5-0.5V14.2z"/>
			<path class="st1" d="M263.5,14.2c0-0.3,0.2-0.5,0.5-0.5h1.6c0.3,0,0.5,0.2,0.5,0.5v1.6c0,0.3-0.2,0.5-0.5,0.5H264
				c-0.3,0-0.5-0.2-0.5-0.5V14.2z"/>
		</g>
		<g>
			<path class="st1" d="M278.9,30.2c0-0.3,0.2-0.5,0.5-0.5h1.6c0.3,0,0.5,0.2,0.5,0.5v1.6c0,0.3-0.2,0.5-0.5,0.5h-1.6
				c-0.3,0-0.5-0.2-0.5-0.5V30.2z"/>
			<path class="st1" d="M273.7,30.2c0-0.3,0.2-0.5,0.5-0.5h1.6c0.3,0,0.5,0.2,0.5,0.5v1.6c0,0.3-0.2,0.5-0.5,0.5h-1.6
				c-0.3,0-0.5-0.2-0.5-0.5V30.2z"/>
			<path class="st1" d="M268.6,30.2c0-0.3,0.2-0.5,0.5-0.5h1.6c0.3,0,0.5,0.2,0.5,0.5v1.6c0,0.3-0.2,0.5-0.5,0.5h-1.6
				c-0.3,0-0.5-0.2-0.5-0.5V30.2z"/>
			<path class="st1" d="M263.5,30.2c0-0.3,0.2-0.5,0.5-0.5h1.6c0.3,0,0.5,0.2,0.5,0.5v1.6c0,0.3-0.2,0.5-0.5,0.5H264
				c-0.3,0-0.5-0.2-0.5-0.5V30.2z"/>
		</g>
		<path class="st1" d="M275.3,21.8c-1.9-1-3.4-2-4.7-2.7c-0.4-0.2-1.7-0.4-1.7,0.8v5.9c0,0,0.3,1.7,1.8,1c1.7-1,4-1.9,5.1-2.8
			C276.2,23.7,276.8,22.8,275.3,21.8z"/>
	</g>
</g>
<g>
	<linearGradient id="SVGID_2_" gradientUnits="userSpaceOnUse" x1="322.5" y1="2" x2="322.5" y2="44.2404">
		<stop  offset="0" style="stop-color:#FFD383"/>
		<stop  offset="1" style="stop-color:#FFA809"/>
	</linearGradient>
	<circle class="st7" cx="322.5" cy="22.5" r="22.5"/>
	<g>
		<path class="st4" d="M335.9,22.7c0,0.4-0.5,0.9-0.5,0.9l-11.9,11.3c-0.6,0.6-1.5,0.6-2,0l-12-11.4c0,0-0.3-0.4-0.4-0.8
			c0-0.4,0.2-1,0.2-1l3.1-6.7c0.3-0.8,0.7-1.4,1.5-1.4h16.5c0.8,0,1,0.5,1.5,1.4l3.6,6.7C335.6,21.7,335.9,22.3,335.9,22.7z"/>
		<g>
			<polyline class="st8" points="328.4,20.6 322.5,26.5 316.6,20.6 			"/>
		</g>
	</g>
</g>
<g>
	<linearGradient id="SVGID_3_" gradientUnits="userSpaceOnUse" x1="172.5" y1="2" x2="172.5" y2="44.2404">
		<stop  offset="0" style="stop-color:#A1D8FF"/>
		<stop  offset="1" style="stop-color:#078EEC"/>
	</linearGradient>
	<circle class="st9" cx="172.5" cy="22.5" r="22.5"/>
	<g>
		<path class="st8" d="M187.3,22.5c-17.1-17.2-29.6,0-29.6,0S170.2,39.7,187.3,22.5z"/>
		
			<ellipse transform="matrix(0.2298 -0.9732 0.9732 0.2298 110.9696 185.216)" class="st1" cx="172.5" cy="22.5" rx="5.9" ry="5.9"/>
	</g>
</g>
<g>
	
		<linearGradient id="SVGID_4_" gradientUnits="userSpaceOnUse" x1="372.5" y1="44" x2="372.5" y2="1.7596" gradientTransform="matrix(1 0 0 -1 0 46)">
		<stop  offset="0.1657" style="stop-color:#9AD600"/>
		<stop  offset="0.8761" style="stop-color:#5EBF00"/>
	</linearGradient>
	<circle class="st10" cx="372.5" cy="22.5" r="22.5"/>
	<g>
		<path class="st3" d="M383,33.4H370c-1.1,0-2-0.9-2-2l0,0c0-1.1,0.9-2,2-2H383c1.1,0,2,0.9,2,2l0,0C385,32.5,384.1,33.4,383,33.4z"
			/>
		<circle class="st1" cx="381" cy="31.5" r="1"/>
		<path class="st3" d="M383,27.4H370c-1.1,0-2-0.9-2-2l0,0c0-1.1,0.9-2,2-2H383c1.1,0,2,0.9,2,2l0,0C385,26.5,384.1,27.4,383,27.4z"
			/>
		<circle class="st1" cx="381" cy="25.5" r="1"/>
		<path class="st4" d="M366.1,33.5H363c-1.6,0-3-1.3-3-3v-12v-1v-3.7c0-1.8,1.5-3.3,3.3-3.3h5.1c1,0,2,0.5,2.6,1.3l2,2.7h8
			c1.6,0,3,1.4,3,3v3.8"/>
	</g>
</g>
<g>
	<linearGradient id="SVGID_5_" gradientUnits="userSpaceOnUse" x1="222.5" y1="2" x2="222.5" y2="44.2404">
		<stop  offset="0" style="stop-color:#F490E9"/>
		<stop  offset="1" style="stop-color:#DF57AB"/>
	</linearGradient>
	<circle class="st11" cx="222.5" cy="22.5" r="22.5"/>
	<g>
		<g>
			<path class="st1" d="M214.2,24.7l4,5.2l4.2-5.2H220c0,0-0.5-4,3.2-6.7c-2.9,0.5-5.8,1.3-6.5,6.7
				C214.2,24.7,214.2,24.7,214.2,24.7z"/>
			<path class="st1" d="M230.8,27.5l-4-5.2l-4.2,5.2h2.4c0,0,0.5,4-3.2,6.7c2.9-0.5,5.8-1.3,6.5-6.7
				C230.8,27.5,230.8,27.5,230.8,27.5z"/>
		</g>
		<g>
			<path class="st4" d="M220,33.5h-6.5c-1.6,0-3-1.3-3-3v-12v-1v-3.7c0-1.8,1.5-3.3,3.3-3.3h5.1c1,0,2,0.5,2.6,1.3l2,2.7h8
				c1.6,0,3,1.4,3,3v3.8"/>
		</g>
		<g>
			<path class="st4" d="M234.5,21.3v5.5v3.8c0,1.7-1.4,3-3,3H229"/>
		</g>
	</g>
</g>
<g>
	<linearGradient id="SVGID_6_" gradientUnits="userSpaceOnUse" x1="72.5" y1="2" x2="72.5" y2="44.2404">
		<stop  offset="0" style="stop-color:#95D7D5"/>
		<stop  offset="1" style="stop-color:#18C3BD"/>
	</linearGradient>
	<circle class="st12" cx="72.5" cy="22.5" r="22.5"/>
	<path class="st1" d="M70.4,26.8v7.8c0,0.1,0.1,0.2,0.2,0.2h3.7c0.1,0,0.2-0.1,0.2-0.2v-7.8c0-0.1,0.1-0.2,0.2-0.2h3.4
		c0.2,0,0.3-0.2,0.2-0.4l-5.7-6.2c-0.1-0.1-0.2-0.1-0.3,0l-5.7,6.2c-0.1,0.1,0,0.4,0.2,0.4h3.4C70.3,26.6,70.4,26.7,70.4,26.8z"/>
	<g>
		<g>
			<path class="st4" d="M68,33.5h-4.5c-1.6,0-3-1.3-3-3v-12v-1v-3.7c0-1.8,1.5-3.3,3.3-3.3h5.1c1,0,2,0.5,2.6,1.3l2,2.7h8
				c1.6,0,3,1.4,3,3v3.8"/>
		</g>
		<g>
			<path class="st4" d="M84.5,21.3v5.5v3.8c0,1.7-1.4,3-3,3H77"/>
		</g>
	</g>
</g>
<g>
	<linearGradient id="SVGID_7_" gradientUnits="userSpaceOnUse" x1="22.5" y1="2" x2="22.5" y2="44.2404">
		<stop  offset="0" style="stop-color:#FFCCA5"/>
		<stop  offset="1" style="stop-color:#FF8503"/>
	</linearGradient>
	<circle class="st13" cx="22.5" cy="22.5" r="22.5"/>
	<g>
		<path class="st4" d="M14.3,31.6L14.3,31.6c-4,0-7.3-3.3-7.3-7.3c0-4,3.3-7.3,7.3-7.3h1c0.8-3.2,3.7-5.7,7.2-5.7
			c3.5,0,6.4,2.4,7.2,5.7h1c4,0,7.3,3.3,7.3,7.3c0,0.5-0.1,1.1-0.2,1.6"/>
		<g>
			<path class="st3" d="M33,33.4H20c-1.1,0-2-0.9-2-2l0,0c0-1.1,0.9-2,2-2H33c1.1,0,2,0.9,2,2l0,0C35,32.5,34.1,33.4,33,33.4z"/>
			<circle class="st1" cx="31" cy="31.5" r="1"/>
			<path class="st3" d="M33,27.4H20c-1.1,0-2-0.9-2-2l0,0c0-1.1,0.9-2,2-2H33c1.1,0,2,0.9,2,2l0,0C35,26.5,34.1,27.4,33,27.4z"/>
			<circle class="st1" cx="31" cy="25.5" r="1"/>
		</g>
	</g>
</g>
<g>
	<linearGradient id="SVGID_8_" gradientUnits="userSpaceOnUse" x1="122.5" y1="2" x2="122.5" y2="44.2404">
		<stop  offset="0" style="stop-color:#F9B0AF"/>
		<stop  offset="1" style="stop-color:#F95F63"/>
	</linearGradient>
	<circle class="st14" cx="122.5" cy="22.5" r="22.5"/>
	<g>
		<path class="st4" d="M126.9,28.4c0,1-0.8,1.8-1.8,1.8h-5.1c-1,0-1.8-0.8-1.8-1.8V14.2c0-1,1.3-6.1,4.4-6.1c2.8,0,4.4,5.1,4.4,6.1
			V28.4z"/>
		<line class="st4" x1="122.5" y1="30.3" x2="122.5" y2="21.9"/>
		<path class="st4" d="M118.1,29.8c0,1-4.9,0.8-4.8,0c0.6-2.4,0.6-2.1,1.2-4.8c0.2-1,0.8-1.8,1.7-1.8h0.2c1,0,1.7,0.8,1.7,1.8V29.8z
			"/>
		<path class="st4" d="M126.9,29.8c0,1,4.9,0.8,4.8,0c-0.6-2.4-0.6-2.1-1.2-4.8c-0.2-1-0.8-1.8-1.7-1.8h-0.2c-1,0-1.7,0.8-1.7,1.8
			V29.8z"/>
		<path class="st1" d="M123.7,14.3c0,0.7-0.5,1.2-1.2,1.2l0,0c-0.7,0-1.2-0.5-1.2-1.2v-1.4c0-0.7,0.5-1.2,1.2-1.2l0,0
			c0.7,0,1.2,0.5,1.2,1.2V14.3z"/>
		<line class="st4" x1="118.1" y1="32.5" x2="118.1" y2="34.5"/>
		<line class="st4" x1="126.9" y1="32.5" x2="126.9" y2="34.5"/>
		<line class="st4" x1="122.5" y1="33" x2="122.5" y2="37"/>
	</g>
</g>
</svg>
