<?xml version="1.0" encoding="utf-8"?>
<!-- Generator: Adobe Illustrator 22.0.0, SVG Export Plug-In . SVG Version: 6.00 Build 0)  -->
<svg xmlns="http://www.w3.org/2000/svg" width="120" height="40" viewBox="0 0 120 40">
<style type="text/css">
	.st0{fill:#999999;}
	.st1{fill:#FFFFFF;}
</style>
<g>
	<g>
		<path class="st0" d="M102.9,8.4c0,1.5-1.2,2.7-2.7,2.7c-1.5,0-2.7-1.2-2.7-2.7s1.2-2.7,2.7-2.7C101.7,5.7,102.9,6.9,102.9,8.4z"/>
	</g>
	<g>
		<path class="st0" d="M96.8,14.6c0,0.9-0.7,1.6-1.6,1.6c-0.9,0-1.6-0.7-1.6-1.6s0.7-1.6,1.6-1.6C96,13,96.8,13.7,96.8,14.6z"/>
	</g>
	<g>
		<path class="st0" d="M106.7,16.1c0,1.5-1.2,2.7-2.7,2.7c-1.5,0-2.7-1.2-2.7-2.7s1.2-2.7,2.7-2.7C105.5,13.4,106.7,14.6,106.7,16.1
			z"/>
	</g>
	<g>
		<path class="st0" d="M111.3,3c1.6,0,2.9,1.3,2.9,2.9c0,1.6-1.3,2.9-2.9,2.9c-1.6,0-2.9-1.3-2.9-2.9C108.4,4.3,109.7,3,111.3,3
			 M111.3,1c-2.7,0-4.9,2.2-4.9,4.9c0,2.7,2.2,4.9,4.9,4.9c2.7,0,4.9-2.2,4.9-4.9C116.2,3.2,114,1,111.3,1L111.3,1z"/>
	</g>
	<g>
		<polygon class="st0" points="104.4,17 100.1,9.3 95.5,14.9 94.7,14.3 100.2,7.5 104.5,15.2 108.7,9.3 109.5,9.8 		"/>
	</g>
</g>
<g>
	<path class="st0" d="M76.9,10c0,1-0.8,1.9-1.9,1.9c-1,0-1.9-0.8-1.9-1.9c0-1,0.8-1.9,1.9-1.9C76,8.1,76.9,8.9,76.9,10z"/>
	<path class="st0" d="M75,3.6c-3.5,0-6.4,2.9-6.4,6.4s2.9,6.4,6.4,6.4s6.4-2.9,6.4-6.4S78.5,3.6,75,3.6z M75,14.7
		c-2.6,0-4.7-2.1-4.7-4.7s2.1-4.7,4.7-4.7c2.6,0,4.7,2.1,4.7,4.7S77.6,14.7,75,14.7z"/>
	<path class="st0" d="M76.5,4.1c0,0.3-0.2,0.5-0.5,0.5h-2c-0.3,0-0.5-0.2-0.5-0.5V1c0-0.3,0.2-0.5,0.5-0.5h2c0.3,0,0.5,0.2,0.5,0.5
		V4.1z"/>
	<path class="st0" d="M71.9,4.8c0.2,0.2,0.2,0.5,0,0.7l-1.4,1.4c-0.2,0.2-0.5,0.2-0.7,0l-2.2-2.2c-0.2-0.2-0.2-0.5,0-0.7L69,2.6
		c0.2-0.2,0.5-0.2,0.7,0L71.9,4.8z"/>
	<path class="st0" d="M69.1,8.4c0.3,0,0.5,0.2,0.5,0.5v2c0,0.3-0.2,0.5-0.5,0.5H66c-0.3,0-0.5-0.2-0.5-0.5V9c0-0.3,0.2-0.5,0.5-0.5
		L69.1,8.4L69.1,8.4z"/>
	<path class="st0" d="M69.8,13c0.2-0.2,0.5-0.2,0.7,0l1.4,1.4c0.2,0.2,0.2,0.5,0,0.7l-2.2,2.2c-0.2,0.2-0.5,0.2-0.7,0L67.6,16
		c-0.2-0.2-0.2-0.5,0-0.7L69.8,13z"/>
	<path class="st0" d="M73.4,15.8c0-0.3,0.2-0.5,0.5-0.5h2c0.3,0,0.5,0.2,0.5,0.5v3.1c0,0.3-0.2,0.5-0.5,0.5h-2
		c-0.3,0-0.5-0.2-0.5-0.5V15.8z"/>
	<path class="st0" d="M78,15.2c-0.2-0.2-0.2-0.5,0-0.7l1.4-1.4c0.2-0.2,0.5-0.2,0.7,0l2.2,2.2c0.2,0.2,0.2,0.5,0,0.7L81,17.4
		c-0.2,0.2-0.5,0.2-0.7,0L78,15.2z"/>
	<path class="st0" d="M80.8,11.5c-0.3,0-0.5-0.2-0.5-0.5V9c0-0.3,0.2-0.5,0.5-0.5h3.1c0.3,0,0.5,0.2,0.5,0.5v2
		c0,0.3-0.2,0.5-0.5,0.5L80.8,11.5L80.8,11.5z"/>
	<path class="st0" d="M80.2,6.9c-0.2,0.2-0.5,0.2-0.7,0L78,5.5c-0.2-0.2-0.2-0.5,0-0.7l2.2-2.2c0.2-0.2,0.5-0.2,0.7,0L82.4,4
		c0.2,0.2,0.2,0.5,0,0.7L80.2,6.9z"/>
</g>
<g>
	<g>
		<path class="st0" d="M14.5,19.1c-0.4,0-0.8-0.2-1.1-0.5L4,9.7c-0.1-0.1-0.4-0.5-0.4-1c-0.1-0.4,0.2-1,0.2-1.1l2.4-5.3
			C6.3,2.1,6.6,1,7.8,1h13c0.9,0,1.2,0.5,1.5,1.2l0.1,0.2l2.9,5.3c0.1,0.1,0.3,0.6,0.3,1.1l0,0c0,0.4-0.4,0.8-0.5,0.9l-9.4,8.9
			C15.3,18.9,14.9,19.1,14.5,19.1z M7.8,2C7.6,2,7.3,2.1,7.1,2.8L4.6,8.1C4.6,8.2,4.5,8.5,4.5,8.6c0,0.2,0.1,0.4,0.2,0.4l9.4,8.9
			c0.3,0.3,0.6,0.3,0.9,0L24.3,9c0.1-0.1,0.2-0.3,0.2-0.4c0-0.1-0.1-0.4-0.2-0.5l-2.9-5.5C21,2,21,2,20.7,2H7.8z M25,8.7L25,8.7
			L25,8.7z"/>
	</g>
	<g>
		<g>
			<path class="st0" d="M14.5,12.2c-0.1,0-0.3,0-0.4-0.1L9.6,7.4c-0.2-0.2-0.2-0.5,0-0.7c0.2-0.2,0.5-0.2,0.7,0l4.2,4.2l4.2-4.2
				c0.2-0.2,0.5-0.2,0.7,0c0.2,0.2,0.2,0.5,0,0.7L14.9,12C14.8,12.1,14.6,12.2,14.5,12.2z"/>
		</g>
	</g>
</g>
<g>
	<g>
		<path class="st0" d="M42.9,7.7c0,1.2-1,2.2-2.2,2.2c-1.2,0-2.2-1-2.2-2.2c0-1.2,1-2.2,2.2-2.2C41.9,5.6,42.9,6.5,42.9,7.7z"/>
		<path class="st0" d="M44.6,14.5c0-1.9-1.2-3.4-2.9-3.8l-0.9,1.8l-0.7-1.8c-1.8,0.3-3.1,1.9-3.1,3.9c0,0,0,0.2,0,0.2h7.6
			C44.6,14.7,44.6,14.5,44.6,14.5z"/>
	</g>
	<g>
		<g>
			<path class="st0" d="M53.5,7.6h-7.2c-0.3,0-0.5-0.2-0.5-0.5s0.2-0.5,0.5-0.5h7.2c0.3,0,0.5,0.2,0.5,0.5S53.7,7.6,53.5,7.6z"/>
		</g>
		<g>
			<path class="st0" d="M53.5,10.7h-7.2c-0.3,0-0.5-0.2-0.5-0.5s0.2-0.5,0.5-0.5h7.2c0.3,0,0.5,0.2,0.5,0.5
				C54,10.5,53.7,10.7,53.5,10.7z"/>
		</g>
		<g>
			<path class="st0" d="M53.5,13.7h-7.2c-0.3,0-0.5-0.2-0.5-0.5s0.2-0.5,0.5-0.5h7.2c0.3,0,0.5,0.2,0.5,0.5S53.7,13.7,53.5,13.7z"/>
		</g>
		<g>
			<path class="st0" d="M54,17.6H36c-1.4,0-2.5-1.1-2.5-2.5V5c0-1.4,1.1-2.5,2.5-2.5h18c1.4,0,2.5,1.1,2.5,2.5v10.1
				C56.5,16.5,55.4,17.6,54,17.6z M36,3.5c-0.8,0-1.5,0.7-1.5,1.5v10.1c0,0.8,0.7,1.5,1.5,1.5h18c0.8,0,1.5-0.7,1.5-1.5V5
				c0-0.8-0.7-1.5-1.5-1.5H36z"/>
		</g>
	</g>
</g>
<g>
	<g>
		<path class="st1" d="M102.9,28.4c0,1.5-1.2,2.7-2.7,2.7c-1.5,0-2.7-1.2-2.7-2.7s1.2-2.7,2.7-2.7C101.7,25.7,102.9,26.9,102.9,28.4
			z"/>
	</g>
	<g>
		<path class="st1" d="M96.8,34.6c0,0.9-0.7,1.6-1.6,1.6c-0.9,0-1.6-0.7-1.6-1.6s0.7-1.6,1.6-1.6C96,33,96.8,33.7,96.8,34.6z"/>
	</g>
	<g>
		<path class="st1" d="M106.7,36.1c0,1.5-1.2,2.7-2.7,2.7c-1.5,0-2.7-1.2-2.7-2.7s1.2-2.7,2.7-2.7C105.5,33.4,106.7,34.6,106.7,36.1
			z"/>
	</g>
	<g>
		<path class="st1" d="M111.3,23c1.6,0,2.9,1.3,2.9,2.9c0,1.6-1.3,2.9-2.9,2.9c-1.6,0-2.9-1.3-2.9-2.9C108.4,24.3,109.7,23,111.3,23
			 M111.3,21c-2.7,0-4.9,2.2-4.9,4.9c0,2.7,2.2,4.9,4.9,4.9c2.7,0,4.9-2.2,4.9-4.9C116.2,23.2,114,21,111.3,21L111.3,21z"/>
	</g>
	<g>
		<polygon class="st1" points="104.4,37 100.1,29.3 95.5,34.9 94.7,34.3 100.2,27.5 104.5,35.2 108.7,29.3 109.5,29.8 		"/>
	</g>
</g>
<g>
	<path class="st1" d="M76.9,30c0,1-0.8,1.9-1.9,1.9c-1,0-1.9-0.8-1.9-1.9c0-1,0.8-1.9,1.9-1.9C76,28.1,76.9,28.9,76.9,30z"/>
	<path class="st1" d="M75,23.6c-3.5,0-6.4,2.9-6.4,6.4s2.9,6.4,6.4,6.4s6.4-2.9,6.4-6.4C81.4,26.5,78.5,23.6,75,23.6z M75,34.7
		c-2.6,0-4.7-2.1-4.7-4.7s2.1-4.7,4.7-4.7c2.6,0,4.7,2.1,4.7,4.7S77.6,34.7,75,34.7z"/>
	<path class="st1" d="M76.5,24.1c0,0.3-0.2,0.5-0.5,0.5h-2c-0.3,0-0.5-0.2-0.5-0.5V21c0-0.3,0.2-0.5,0.5-0.5h2
		c0.3,0,0.5,0.2,0.5,0.5V24.1z"/>
	<path class="st1" d="M71.9,24.8c0.2,0.2,0.2,0.5,0,0.7l-1.4,1.4c-0.2,0.2-0.5,0.2-0.7,0l-2.2-2.2c-0.2-0.2-0.2-0.5,0-0.7l1.4-1.4
		c0.2-0.2,0.5-0.2,0.7,0L71.9,24.8z"/>
	<path class="st1" d="M69.1,28.4c0.3,0,0.5,0.2,0.5,0.5v2c0,0.3-0.2,0.5-0.5,0.5H66c-0.3,0-0.5-0.2-0.5-0.5v-2
		c0-0.3,0.2-0.5,0.5-0.5C66,28.4,69.1,28.4,69.1,28.4z"/>
	<path class="st1" d="M69.8,33c0.2-0.2,0.5-0.2,0.7,0l1.4,1.4c0.2,0.2,0.2,0.5,0,0.7l-2.2,2.2c-0.2,0.2-0.5,0.2-0.7,0L67.6,36
		c-0.2-0.2-0.2-0.5,0-0.7L69.8,33z"/>
	<path class="st1" d="M73.4,35.8c0-0.3,0.2-0.5,0.5-0.5h2c0.3,0,0.5,0.2,0.5,0.5v3.1c0,0.3-0.2,0.5-0.5,0.5h-2
		c-0.3,0-0.5-0.2-0.5-0.5V35.8z"/>
	<path class="st1" d="M78,35.2c-0.2-0.2-0.2-0.5,0-0.7l1.4-1.4c0.2-0.2,0.5-0.2,0.7,0l2.2,2.2c0.2,0.2,0.2,0.5,0,0.7L81,37.4
		c-0.2,0.2-0.5,0.2-0.7,0L78,35.2z"/>
	<path class="st1" d="M80.8,31.5c-0.3,0-0.5-0.2-0.5-0.5v-2c0-0.3,0.2-0.5,0.5-0.5h3.1c0.3,0,0.5,0.2,0.5,0.5v2
		c0,0.3-0.2,0.5-0.5,0.5C83.9,31.5,80.8,31.5,80.8,31.5z"/>
	<path class="st1" d="M80.2,26.9c-0.2,0.2-0.5,0.2-0.7,0L78,25.5c-0.2-0.2-0.2-0.5,0-0.7l2.2-2.2c0.2-0.2,0.5-0.2,0.7,0l1.4,1.4
		c0.2,0.2,0.2,0.5,0,0.7L80.2,26.9z"/>
</g>
<g>
	<g>
		<path class="st1" d="M14.5,39.1c-0.4,0-0.8-0.2-1.1-0.5L4,29.7c-0.1-0.1-0.4-0.5-0.4-1c-0.1-0.4,0.2-1,0.2-1.1l2.4-5.3
			C6.3,22.1,6.6,21,7.8,21h13c0.9,0,1.2,0.5,1.5,1.2l0.1,0.2l2.9,5.3c0.1,0.1,0.3,0.6,0.3,1.1l0,0c0,0.4-0.4,0.8-0.5,0.9l-9.4,8.9
			C15.3,38.9,14.9,39.1,14.5,39.1z M7.8,22c-0.2,0-0.4,0.1-0.7,0.8l-2.4,5.3c-0.1,0.2-0.1,0.4-0.1,0.5c0,0.2,0.1,0.4,0.2,0.4
			l9.4,8.9c0.3,0.3,0.6,0.3,0.9,0l9.3-8.8c0.1-0.1,0.2-0.3,0.2-0.4c0-0.1-0.1-0.4-0.2-0.5l-2.9-5.5C21,22,21,22,20.7,22H7.8z
			 M25,28.7L25,28.7L25,28.7z"/>
	</g>
	<g>
		<g>
			<path class="st1" d="M14.5,32.2c-0.1,0-0.3,0-0.4-0.1l-4.6-4.6c-0.2-0.2-0.2-0.5,0-0.7c0.2-0.2,0.5-0.2,0.7,0l4.2,4.2l4.2-4.2
				c0.2-0.2,0.5-0.2,0.7,0c0.2,0.2,0.2,0.5,0,0.7L14.9,32C14.8,32.1,14.6,32.2,14.5,32.2z"/>
		</g>
	</g>
</g>
<g>
	<g>
		<path class="st1" d="M42.9,27.7c0,1.2-1,2.2-2.2,2.2c-1.2,0-2.2-1-2.2-2.2c0-1.2,1-2.2,2.2-2.2C41.9,25.6,42.9,26.5,42.9,27.7z"/>
		<path class="st1" d="M44.6,34.5c0-1.9-1.2-3.4-2.9-3.8l-0.9,1.8l-0.7-1.8c-1.8,0.3-3.1,1.9-3.1,3.9c0,0,0,0.2,0,0.2h7.6
			C44.6,34.7,44.6,34.5,44.6,34.5z"/>
	</g>
	<g>
		<g>
			<path class="st1" d="M53.5,27.6h-7.2c-0.3,0-0.5-0.2-0.5-0.5s0.2-0.5,0.5-0.5h7.2c0.3,0,0.5,0.2,0.5,0.5S53.7,27.6,53.5,27.6z"/>
		</g>
		<g>
			<path class="st1" d="M53.5,30.7h-7.2c-0.3,0-0.5-0.2-0.5-0.5s0.2-0.5,0.5-0.5h7.2c0.3,0,0.5,0.2,0.5,0.5
				C54,30.5,53.7,30.7,53.5,30.7z"/>
		</g>
		<g>
			<path class="st1" d="M53.5,33.7h-7.2c-0.3,0-0.5-0.2-0.5-0.5c0-0.3,0.2-0.5,0.5-0.5h7.2c0.3,0,0.5,0.2,0.5,0.5
				C54,33.5,53.7,33.7,53.5,33.7z"/>
		</g>
		<g>
			<path class="st1" d="M54,37.6H36c-1.4,0-2.5-1.1-2.5-2.5V25c0-1.4,1.1-2.5,2.5-2.5h18c1.4,0,2.5,1.1,2.5,2.5v10.1
				C56.5,36.5,55.4,37.6,54,37.6z M36,23.5c-0.8,0-1.5,0.7-1.5,1.5v10.1c0,0.8,0.7,1.5,1.5,1.5h18c0.8,0,1.5-0.7,1.5-1.5V25
				c0-0.8-0.7-1.5-1.5-1.5H36z"/>
		</g>
	</g>
</g>
</svg>
