<?xml version="1.0" encoding="utf-8"?>
<!-- Generator: Adobe Illustrator 22.0.0, SVG Export Plug-In . SVG Version: 6.00 Build 0)  -->
<svg version="1.1" id="图层_1" xmlns="http://www.w3.org/2000/svg" xmlns:xlink="http://www.w3.org/1999/xlink" x="0px" y="0px"
	 width="46px" height="163px" viewBox="0 0 46 163" style="enable-background:new 0 0 46 163;" xml:space="preserve">
<style type="text/css">
	.st0{fill:#FCFCFC;}
	.st1{fill:none;stroke:#E0E0E0;stroke-linecap:round;stroke-linejoin:round;}
	.st2{fill:#FAFDFF;}
	.st3{fill:none;stroke:#0688FF;stroke-linecap:round;stroke-linejoin:round;}
	.st4{fill:none;stroke:#7B7C7C;stroke-width:0.75;stroke-linecap:round;stroke-linejoin:round;stroke-miterlimit:10;}
	.st5{fill:none;stroke:#0688FF;stroke-width:0.75;stroke-linecap:round;stroke-linejoin:round;stroke-miterlimit:10;}
</style>
<title>icon1</title>
<path class="st0" d="M17.6,56.8H3.4c-1.9,0-3.4-1.5-3.4-3.4v-50C0,1.5,1.5,0,3.4,0h14.2C19.5,0,21,1.5,21,3.4v49.9
	C21,55.2,19.5,56.8,17.6,56.8z"/>
<polyline class="st1" points="16.5,47.1 4.5,28.4 16.5,9.6 "/>
<path class="st2" d="M17.6,116.8H3.4c-1.9,0-3.4-1.5-3.4-3.4v-50C0,61.5,1.5,60,3.4,60h14.2c1.9,0,3.4,1.5,3.4,3.4v49.9
	C21,115.2,19.5,116.8,17.6,116.8z"/>
<polyline class="st3" points="16.5,107.1 4.5,88.4 16.5,69.7 "/>
<path class="st0" d="M28.4,0h14.2C44.5,0,46,1.5,46,3.4v49.9c0,1.9-1.5,3.4-3.4,3.4H28.4c-1.9,0-3.4-1.5-3.4-3.4V3.4
	C25,1.5,26.5,0,28.4,0z"/>
<polyline class="st1" points="29.5,47.1 41.5,28.4 29.5,9.6 "/>
<path class="st2" d="M28.4,60h14.2c1.9,0,3.4,1.5,3.4,3.4v49.9c0,1.9-1.5,3.4-3.4,3.4H28.4c-1.9,0-3.4-1.5-3.4-3.4V63.4
	C25,61.5,26.5,60,28.4,60z"/>
<polyline class="st3" points="29.5,107.1 41.5,88.4 29.5,69.7 "/>
<g>
	<polyline class="st4" points="9.7,140.1 15.9,130.3 9.7,120.5 	"/>
</g>
<g>
	<polyline class="st5" points="9.7,162.2 15.9,152.3 9.7,142.5 	"/>
</g>
<g>
	<polyline class="st4" points="6.9,140.1 0.7,130.3 6.9,120.5 	"/>
</g>
<g>
	<polyline class="st5" points="6.9,162.2 0.7,152.3 6.9,142.5 	"/>
</g>
</svg>
