<svg xmlns="http://www.w3.org/2000/svg" width="40" height="40" viewBox="0 0 40 40">
    <g fill="none" fill-rule="evenodd">
        <g transform="translate(1 1)">
            <circle cx="9" cy="9" r="8" stroke="#999" stroke-width="2"/>
            <path fill="#999" fill-rule="nonzero" d="M9.0953059,4.5 C9.95049837,4.5 10.6532897,4.73997753 11.1942211,5.23930068 C11.7300531,5.73168691 12,6.40835371 12,7.22529477 C12,7.84395456 11.8184878,8.39916839 11.4464302,8.88930365 C11.304757,9.0593116 10.9740924,9.37466757 10.4751814,9.81682326 C10.2808449,9.98465932 10.1511808,10.1373284 10.0622307,10.2970376 C9.9698797,10.4533239 9.92569519,10.6247598 9.92569519,10.8357064 L9.92569519,11.0407356 L7.92854285,11.0407356 L7.92854285,10.8357064 C7.92854285,10.3866532 8.01259563,9.98039812 8.18197368,9.62760259 C8.37868769,9.20607256 8.79201665,8.73105271 9.42393947,8.17061356 C9.64364222,7.95091082 9.720236,7.87098687 9.76458821,7.81229792 C9.91478771,7.62454854 9.98042275,7.45225657 9.98042275,7.2701446 C9.98042275,6.96841691 9.90260156,6.75863806 9.75212729,6.60798777 C9.6129996,6.46281105 9.39148628,6.38502775 9.05045606,6.38502775 C8.65242707,6.38502775 8.40724338,6.49270977 8.23840946,6.72421032 C8.07443647,6.93290322 7.98593988,7.24063001 7.98593988,7.67379311 L7.98593988,7.94289211 L6,7.94289211 L6,7.67379311 C6,6.74742399 6.26498221,5.98644943 6.80458825,5.4200777 C7.36350263,4.80527188 8.14055832,4.5 9.0953059,4.5 Z M8.92711902,11.6152368 C9.26612921,11.6152368 9.57161508,11.7291468 9.80943095,11.9669627 C10.0387274,12.1962592 10.1611568,12.4943481 10.1611568,12.8268497 C10.1611568,13.1784089 10.0325503,13.4838494 9.78095587,13.7144776 C9.54287785,13.9327158 9.25302223,14.0496751 8.92711902,14.0496751 C8.60121581,14.0496751 8.3113602,13.9327158 8.05601954,13.6979492 C7.8183966,13.4603263 7.70429368,13.164696 7.70429368,12.8268497 C7.70429368,12.4821089 7.82305389,12.1798102 8.05601954,11.9669627 C8.29364249,11.7293398 8.58927277,11.6152368 8.92711902,11.6152368 Z"/>
            <g stroke="#999" stroke-width="2" transform="translate(20 2)">
                <path d="M3,0 L15,0 C16.6568542,-3.04359188e-16 18,1.34314575 18,3 L18,11 C18,12.6568542 16.6568542,14 15,14 L3,14 C1.34314575,14 -6.85272294e-16,12.6568542 -8.8817842e-16,11 L0,3 C-2.02906125e-16,1.34314575 1.34314575,3.04359188e-16 3,0 Z"/>
                <path stroke-linecap="round" stroke-linejoin="round" d="M0.5,9.19612326 L7.39216442,3.40759327 C8.3218568,2.62677146 9.6781432,2.62677146 10.6078356,3.40759327 L17.5,9.19612326" transform="matrix(1 0 0 -1 0 12.088)"/>
            </g>
        </g>
        <g transform="translate(1 21)">
            <circle cx="9" cy="9" r="8" stroke="#00A8FF" stroke-width="2"/>
            <path fill="#00A8FF" fill-rule="nonzero" d="M9.0953059,4.5 C9.95049837,4.5 10.6532897,4.73997753 11.1942211,5.23930068 C11.7300531,5.73168691 12,6.40835371 12,7.22529477 C12,7.84395456 11.8184878,8.39916839 11.4464302,8.88930365 C11.304757,9.0593116 10.9740924,9.37466757 10.4751814,9.81682326 C10.2808449,9.98465932 10.1511808,10.1373284 10.0622307,10.2970376 C9.9698797,10.4533239 9.92569519,10.6247598 9.92569519,10.8357064 L9.92569519,11.0407356 L7.92854285,11.0407356 L7.92854285,10.8357064 C7.92854285,10.3866532 8.01259563,9.98039812 8.18197368,9.62760259 C8.37868769,9.20607256 8.79201665,8.73105271 9.42393947,8.17061356 C9.64364222,7.95091082 9.720236,7.87098687 9.76458821,7.81229792 C9.91478771,7.62454854 9.98042275,7.45225657 9.98042275,7.2701446 C9.98042275,6.96841691 9.90260156,6.75863806 9.75212729,6.60798777 C9.6129996,6.46281105 9.39148628,6.38502775 9.05045606,6.38502775 C8.65242707,6.38502775 8.40724338,6.49270977 8.23840946,6.72421032 C8.07443647,6.93290322 7.98593988,7.24063001 7.98593988,7.67379311 L7.98593988,7.94289211 L6,7.94289211 L6,7.67379311 C6,6.74742399 6.26498221,5.98644943 6.80458825,5.4200777 C7.36350263,4.80527188 8.14055832,4.5 9.0953059,4.5 Z M8.92711902,11.6152368 C9.26612921,11.6152368 9.57161508,11.7291468 9.80943095,11.9669627 C10.0387274,12.1962592 10.1611568,12.4943481 10.1611568,12.8268497 C10.1611568,13.1784089 10.0325503,13.4838494 9.78095587,13.7144776 C9.54287785,13.9327158 9.25302223,14.0496751 8.92711902,14.0496751 C8.60121581,14.0496751 8.3113602,13.9327158 8.05601954,13.6979492 C7.8183966,13.4603263 7.70429368,13.164696 7.70429368,12.8268497 C7.70429368,12.4821089 7.82305389,12.1798102 8.05601954,11.9669627 C8.29364249,11.7293398 8.58927277,11.6152368 8.92711902,11.6152368 Z"/>
            <g stroke="#00A8FF" stroke-width="2" transform="translate(20 2)">
                <path d="M3,0 L15,0 C16.6568542,-3.04359188e-16 18,1.34314575 18,3 L18,11 C18,12.6568542 16.6568542,14 15,14 L3,14 C1.34314575,14 -6.85272294e-16,12.6568542 -8.8817842e-16,11 L0,3 C-2.02906125e-16,1.34314575 1.34314575,3.04359188e-16 3,0 Z"/>
                <path stroke-linecap="round" stroke-linejoin="round" d="M0.5,9.19612326 L7.39216442,3.40759327 C8.3218568,2.62677146 9.6781432,2.62677146 10.6078356,3.40759327 L17.5,9.19612326" transform="matrix(1 0 0 -1 0 12.088)"/>
            </g>
        </g>
    </g>
</svg>
