<?xml version="1.0" encoding="utf-8"?>
<!-- Generator: Adobe Illustrator 22.1.0, SVG Export Plug-In . SVG Version: 6.00 Build 0) 40*40 -->
<svg xmlns="http://www.w3.org/2000/svg" width="240" height="80" viewBox="0 0 240 80">
<style type="text/css">
	.st0{fill:#DADADA;}
	.st1{fill:#0688FF;}
</style>
<g>
	<g>
		<path class="st0" d="M107.581,3.535c1.335,0,2.419,1.084,2.419,2.419v29.739c0,1.336-1.084,2.419-2.419,2.419H91.419
			c-1.336,0-2.419-1.083-2.419-2.419V5.954c0-1.336,1.083-2.419,2.419-2.419H107.581 M107.581,2.935H91.419
			c-1.665,0-3.019,1.354-3.019,3.019v29.739c0,1.665,1.354,3.019,3.019,3.019h16.162c1.665,0,3.019-1.354,3.019-3.019V5.954
			C110.6,4.289,109.246,2.935,107.581,2.935L107.581,2.935z"/>
	</g>
	<g>
		<path class="st0" d="M99.5,36.944c-1.027,0-1.862-0.835-1.862-1.861s0.835-1.861,1.862-1.861c1.026,0,1.861,0.835,1.861,1.861
			S100.527,36.944,99.5,36.944z M99.5,33.821c-0.696,0-1.263,0.566-1.263,1.262s0.566,1.262,1.263,1.262
			c0.696,0,1.262-0.566,1.262-1.262S100.196,33.821,99.5,33.821z"/>
	</g>
	<g>
		<path class="st0" d="M108.387,32.3H90.613c-0.166,0-0.3-0.134-0.3-0.3V6.243c0-0.166,0.134-0.3,0.3-0.3h17.774
			c0.166,0,0.3,0.134,0.3,0.3V32C108.687,32.166,108.553,32.3,108.387,32.3z M90.913,31.7h17.175V6.543H90.913V31.7z"/>
	</g>
</g>
<g>
	<g>
		<path class="st0" d="M194.683,30.984h-29.366c-1.442,0-2.616-1.174-2.616-2.616V11.632c0-1.442,1.174-2.616,2.616-2.616h29.366
			c1.443,0,2.617,1.174,2.617,2.616v16.736C197.3,29.811,196.126,30.984,194.683,30.984z M165.316,9.615
			c-1.112,0-2.017,0.904-2.017,2.017v16.736c0,1.112,0.904,2.017,2.017,2.017h29.366c1.112,0,2.018-0.904,2.018-2.017V11.632
			c0-1.112-0.905-2.017-2.018-2.017H165.316z"/>
	</g>
	<g>
		<path class="st0" d="M180.114,22.503c-1.693,0-2.974-1.138-2.993-1.155L164.822,9.824c-0.121-0.113-0.127-0.303-0.014-0.424
			c0.112-0.122,0.303-0.129,0.424-0.014l12.296,11.521c0.097,0.087,2.506,2.212,4.946-0.003l12.667-11.521
			c0.122-0.112,0.313-0.103,0.424,0.02c0.111,0.123,0.103,0.313-0.02,0.424l-12.667,11.521
			C181.925,22.214,180.967,22.503,180.114,22.503z"/>
	</g>
	<g>
		<path class="st0" d="M163.664,30.29c-0.082,0-0.163-0.033-0.223-0.099c-0.111-0.123-0.102-0.313,0.021-0.424l11.676-10.574
			c0.123-0.11,0.312-0.103,0.424,0.021c0.111,0.123,0.102,0.313-0.021,0.424l-11.676,10.574
			C163.808,30.265,163.736,30.29,163.664,30.29z"/>
	</g>
	<g>
		<path class="st0" d="M196.336,30.29c-0.072,0-0.144-0.025-0.201-0.077l-11.676-10.574c-0.123-0.111-0.133-0.301-0.021-0.424
			c0.111-0.124,0.301-0.132,0.424-0.021l11.676,10.574c0.123,0.111,0.133,0.301,0.021,0.424
			C196.499,30.257,196.418,30.29,196.336,30.29z"/>
	</g>
</g>
<g>
	<g>
		<path class="st0" d="M61.786,27.636h-3.571c-0.449,0-0.814-0.365-0.814-0.814l0.912-5.442c-0.631-0.509-1.002-1.277-1.002-2.091
			c0-1.483,1.207-2.689,2.689-2.689s2.689,1.206,2.689,2.689c0,0.813-0.371,1.58-1.001,2.091l0.908,5.393
			C62.6,27.271,62.235,27.636,61.786,27.636z M60,17.198c-1.152,0-2.09,0.938-2.09,2.09c0,0.682,0.336,1.323,0.9,1.715
			c0.095,0.066,0.144,0.182,0.125,0.296l-0.938,5.572c0.004,0.068,0.101,0.165,0.219,0.165h3.571c0.118,0,0.214-0.097,0.214-0.215
			l-0.935-5.522c-0.019-0.114,0.029-0.229,0.124-0.296c0.563-0.393,0.899-1.034,0.899-1.715C62.089,18.136,61.152,17.198,60,17.198z
			"/>
	</g>
	<g>
		<path class="st0" d="M69.487,32.101H50.514c-4.86,0-8.813-3.953-8.813-8.813s3.954-8.813,8.813-8.813h0.897
			C52.462,10.591,55.96,7.899,60,7.899c4.041,0,7.54,2.691,8.591,6.574h0.896c4.859,0,8.813,3.953,8.813,8.813
			S74.346,32.101,69.487,32.101z M50.514,15.073c-4.529,0-8.214,3.685-8.214,8.214s3.685,8.214,8.214,8.214h18.973
			c4.529,0,8.213-3.685,8.213-8.214s-3.685-8.214-8.213-8.214h-1.129c-0.138,0-0.259-0.095-0.292-0.229
			C67.158,11.108,63.841,8.499,60,8.499c-3.84,0-7.157,2.609-8.064,6.346c-0.033,0.134-0.153,0.229-0.292,0.229H50.514z"/>
	</g>
</g>
<g>
	<g>
		<path class="st0" d="M234.814,35.249c-0.05,0-0.1-0.012-0.146-0.037l-4.514-2.507c-1.307,0.448-2.675,0.675-4.068,0.675
			c-6.183,0-11.212-4.42-11.212-9.853c0-5.432,5.029-9.851,11.212-9.851s11.213,4.419,11.213,9.851c0,2.876-1.413,5.582-3.887,7.46
			l1.677,3.842c0.051,0.118,0.021,0.256-0.073,0.342C234.96,35.223,234.888,35.249,234.814,35.249z M230.184,32.078
			c0.051,0,0.101,0.013,0.146,0.037l3.855,2.142l-1.417-3.248c-0.056-0.129-0.015-0.28,0.1-0.363
			c2.436-1.768,3.833-4.362,3.833-7.118c0-5.101-4.761-9.251-10.613-9.251c-5.852,0-10.612,4.15-10.612,9.251
			c0,5.102,4.761,9.253,10.612,9.253c1.37,0,2.715-0.23,3.996-0.686C230.116,32.084,230.149,32.078,230.184,32.078z"/>
	</g>
	<g>
		<path class="st0" d="M205.957,30.04c-0.065,0-0.132-0.021-0.186-0.063c-0.095-0.075-0.136-0.2-0.104-0.316l1.502-5.408
			c-2.525-2.076-3.97-4.997-3.97-8.044c0-6.075,5.628-11.018,12.545-11.018c5.95,0,11.123,3.713,12.298,8.828
			c0.037,0.162-0.063,0.322-0.225,0.359c-0.162,0.041-0.323-0.063-0.359-0.225c-1.114-4.846-6.04-8.363-11.714-8.363
			c-6.587,0-11.945,4.674-11.945,10.418c0,2.924,1.421,5.73,3.898,7.7c0.095,0.074,0.135,0.198,0.103,0.314l-1.362,4.905
			l5.348-2.993c0.039-0.022,0.083-0.035,0.129-0.038c1.062-0.081,2.035,0.153,2.81,0.337c0.411,0.098,0.768,0.182,1.034,0.194
			c0.166,0.008,0.294,0.148,0.286,0.313c-0.008,0.166-0.146,0.282-0.313,0.286c-0.323-0.016-0.704-0.105-1.146-0.21
			c-0.718-0.171-1.603-0.38-2.562-0.327l-0.442,0.254l-5.479,3.058C206.058,30.027,206.007,30.04,205.957,30.04z"/>
	</g>
</g>
<g>
	<g>
		<path class="st0" d="M146.362,35.3c-2.606,0-4.779-1.055-5.321-2.543c-0.707,0.069-1.331,0.07-2,0.018
			c-0.554,1.478-2.726,2.525-5.314,2.525c-3.058,0-5.453-1.431-5.453-3.257c0-1.297,1.213-2.421,3.136-2.949
			c-0.55-0.588-1.036-1.23-1.452-1.916c-0.851,0.862-1.75,1.209-2.553,0.978c-1.684-0.479-2.303-3.313-1.411-6.449
			c0.681-2.39,2.094-3.779,3.23-4.547c-0.349-1.057-0.524-2.146-0.524-3.24c0-5.957,5.043-10.803,11.241-10.803
			c6.199,0,11.243,4.846,11.243,10.803c0,1.094-0.176,2.183-0.524,3.239c1.241,0.819,2.687,2.082,3.38,4.518
			c0.863,3.024,0.148,5.992-1.562,6.479c-0.798,0.229-1.688-0.109-2.53-0.956c-0.407,0.668-0.877,1.289-1.403,1.856
			c1.979,0.508,3.271,1.669,3.271,2.987C151.815,33.869,149.42,35.3,146.362,35.3z M141.257,32.132c0.139,0,0.261,0.095,0.292,0.232
			c0.307,1.332,2.376,2.336,4.813,2.336c2.631,0,4.854-1.217,4.854-2.657c0-1.118-1.364-2.152-3.316-2.516
			c-0.11-0.021-0.199-0.101-0.232-0.207c-0.032-0.107-0.003-0.224,0.077-0.302c0.737-0.724,1.372-1.553,1.887-2.467
			c0.048-0.085,0.135-0.142,0.231-0.151c0.104-0.012,0.193,0.028,0.257,0.103c0.75,0.866,1.546,1.256,2.194,1.076
			c1.219-0.349,1.99-2.79,1.149-5.739l0,0c-0.676-2.372-2.132-3.546-3.324-4.304c-0.118-0.074-0.168-0.222-0.122-0.354
			c0.377-1.062,0.567-2.16,0.567-3.264c0-5.626-4.774-10.203-10.644-10.203c-5.868,0-10.642,4.577-10.642,10.203
			c0,1.104,0.19,2.202,0.567,3.264c0.046,0.133-0.005,0.279-0.123,0.354c-1.078,0.68-2.504,1.984-3.174,4.333
			c-0.772,2.72-0.315,5.334,0.999,5.709c0.652,0.185,1.457-0.216,2.215-1.099c0.063-0.074,0.16-0.115,0.257-0.104
			c0.098,0.01,0.185,0.066,0.232,0.152c0.519,0.925,1.168,1.772,1.931,2.519c0.079,0.078,0.109,0.193,0.078,0.3
			s-0.119,0.187-0.228,0.209c-1.902,0.391-3.181,1.39-3.181,2.486c0,1.44,2.223,2.657,4.854,2.657c2.42,0,4.487-0.996,4.809-2.317
			c0.034-0.145,0.169-0.247,0.32-0.228c0.79,0.079,1.512,0.079,2.366-0.021C141.233,32.132,141.245,32.132,141.257,32.132z"/>
	</g>
</g>
<g>
	<g>
		<path class="st0" d="M18.61,13.127c-1.782,0-3.231-1.449-3.231-3.23s1.449-3.229,3.231-3.229c1.78,0,3.229,1.448,3.229,3.229
			S20.39,13.127,18.61,13.127z M18.61,7.267c-1.451,0-2.631,1.18-2.631,2.63s1.181,2.631,2.631,2.631
			c1.45,0,2.629-1.181,2.629-2.631S20.06,7.267,18.61,7.267z"/>
	</g>
	<g>
		<path class="st0" d="M22.26,35.265c-0.166,0-0.3-0.134-0.3-0.3c0-0.6-0.374-0.901-0.806-1.251
			c-0.482-0.391-1.028-0.832-1.028-1.717c0-0.886,0.546-1.327,1.028-1.718c0.432-0.35,0.806-0.651,0.806-1.25
			c0-0.598-0.374-0.899-0.806-1.248c-0.482-0.39-1.028-0.831-1.028-1.715s0.546-1.325,1.028-1.715
			c0.432-0.349,0.805-0.65,0.805-1.247c0-0.166,0.134-0.3,0.3-0.3s0.3,0.134,0.3,0.3c0,0.884-0.546,1.324-1.028,1.714
			c-0.432,0.349-0.806,0.65-0.806,1.248s0.374,0.899,0.806,1.248c0.482,0.39,1.028,0.831,1.028,1.715
			c0,0.885-0.546,1.326-1.028,1.717c-0.432,0.35-0.806,0.651-0.806,1.251c0,0.599,0.374,0.9,0.806,1.25
			c0.482,0.391,1.028,0.832,1.028,1.718C22.56,35.131,22.426,35.265,22.26,35.265z"/>
	</g>
	<g>
		<path class="st0" d="M15.108,35.646c-0.166,0-0.3-0.134-0.3-0.3V22.915C10.548,21.212,7.7,17.021,7.7,12.42
			c0-6.23,5.069-11.3,11.3-11.3s11.3,5.069,11.3,11.3c0,4.778-3.272,9.207-7.959,10.769c-0.158,0.054-0.327-0.032-0.379-0.189
			c-0.052-0.157,0.033-0.327,0.19-0.379c4.444-1.482,7.549-5.677,7.549-10.2c0-5.9-4.8-10.7-10.7-10.7S8.3,6.52,8.3,12.42
			c0,4.423,2.779,8.445,6.914,10.01c0.117,0.044,0.194,0.155,0.194,0.28v12.636C15.408,35.512,15.273,35.646,15.108,35.646z"/>
	</g>
	<g>
		<path class="st0" d="M17.479,35.646c-0.166,0-0.3-0.134-0.3-0.3V23.104c0-0.166,0.134-0.3,0.3-0.3s0.3,0.134,0.3,0.3v12.241
			C17.779,35.512,17.645,35.646,17.479,35.646z"/>
	</g>
	<g>
		<path class="st0" d="M30,35.783H8c-0.166,0-0.3-0.134-0.3-0.3s0.134-0.3,0.3-0.3h22c0.166,0,0.3,0.134,0.3,0.3
			S30.166,35.783,30,35.783z"/>
	</g>
</g>
<g>
	<g>
		<path class="st1" d="M107.581,43.535c1.335,0,2.419,1.084,2.419,2.419v29.739c0,1.336-1.084,2.419-2.419,2.419H91.419
			c-1.336,0-2.419-1.083-2.419-2.419V45.954c0-1.336,1.083-2.419,2.419-2.419H107.581 M107.581,42.935H91.419
			c-1.665,0-3.019,1.354-3.019,3.019v29.739c0,1.665,1.354,3.019,3.019,3.019h16.162c1.665,0,3.019-1.354,3.019-3.019V45.954
			C110.6,44.289,109.246,42.935,107.581,42.935L107.581,42.935z"/>
	</g>
	<g>
		<path class="st1" d="M99.5,76.944c-1.027,0-1.862-0.835-1.862-1.861s0.835-1.861,1.862-1.861c1.026,0,1.861,0.835,1.861,1.861
			S100.527,76.944,99.5,76.944z M99.5,73.821c-0.696,0-1.263,0.566-1.263,1.262s0.566,1.262,1.263,1.262
			c0.696,0,1.262-0.566,1.262-1.262S100.196,73.821,99.5,73.821z"/>
	</g>
	<g>
		<path class="st1" d="M108.387,72.3H90.613c-0.166,0-0.3-0.134-0.3-0.3V46.243c0-0.166,0.134-0.3,0.3-0.3h17.774
			c0.166,0,0.3,0.134,0.3,0.3V72C108.687,72.166,108.553,72.3,108.387,72.3z M90.913,71.7h17.175V46.543H90.913V71.7z"/>
	</g>
</g>
<g>
	<g>
		<path class="st1" d="M194.683,70.984h-29.366c-1.442,0-2.616-1.174-2.616-2.616V51.632c0-1.442,1.174-2.616,2.616-2.616h29.366
			c1.443,0,2.617,1.174,2.617,2.616v16.736C197.3,69.811,196.126,70.984,194.683,70.984z M165.316,49.615
			c-1.112,0-2.017,0.904-2.017,2.017v16.736c0,1.112,0.904,2.017,2.017,2.017h29.366c1.112,0,2.018-0.904,2.018-2.017V51.632
			c0-1.112-0.905-2.017-2.018-2.017H165.316z"/>
	</g>
	<g>
		<path class="st1" d="M180.114,62.503c-1.693,0-2.974-1.138-2.993-1.155l-12.299-11.523c-0.121-0.113-0.127-0.303-0.014-0.424
			c0.112-0.122,0.303-0.129,0.424-0.014l12.296,11.521c0.097,0.087,2.506,2.212,4.946-0.003l12.667-11.521
			c0.122-0.112,0.313-0.103,0.424,0.02c0.111,0.123,0.103,0.313-0.02,0.424l-12.667,11.521
			C181.925,62.214,180.967,62.503,180.114,62.503z"/>
	</g>
	<g>
		<path class="st1" d="M163.664,70.29c-0.082,0-0.163-0.033-0.223-0.099c-0.111-0.123-0.102-0.313,0.021-0.424l11.676-10.574
			c0.123-0.11,0.312-0.103,0.424,0.021c0.111,0.123,0.102,0.313-0.021,0.424l-11.676,10.574
			C163.808,70.265,163.736,70.29,163.664,70.29z"/>
	</g>
	<g>
		<path class="st1" d="M196.336,70.29c-0.072,0-0.144-0.025-0.201-0.077l-11.676-10.574c-0.123-0.111-0.133-0.301-0.021-0.424
			c0.111-0.124,0.301-0.132,0.424-0.021l11.676,10.574c0.123,0.111,0.133,0.301,0.021,0.424
			C196.499,70.257,196.418,70.29,196.336,70.29z"/>
	</g>
</g>
<g>
	<g>
		<path class="st1" d="M61.786,67.636h-3.571c-0.449,0-0.814-0.365-0.814-0.814l0.912-5.442c-0.631-0.509-1.002-1.277-1.002-2.091
			c0-1.483,1.207-2.689,2.689-2.689s2.689,1.206,2.689,2.689c0,0.813-0.371,1.58-1.001,2.091l0.908,5.393
			C62.6,67.271,62.235,67.636,61.786,67.636z M60,57.198c-1.152,0-2.09,0.938-2.09,2.09c0,0.682,0.336,1.323,0.9,1.715
			c0.095,0.066,0.144,0.182,0.125,0.296l-0.938,5.572c0.004,0.068,0.101,0.165,0.219,0.165h3.571c0.118,0,0.214-0.097,0.214-0.215
			l-0.935-5.522c-0.019-0.114,0.029-0.229,0.124-0.296c0.563-0.393,0.899-1.034,0.899-1.715C62.089,58.136,61.152,57.198,60,57.198z
			"/>
	</g>
	<g>
		<path class="st1" d="M69.487,72.101H50.514c-4.86,0-8.813-3.953-8.813-8.813s3.954-8.813,8.813-8.813h0.897
			c1.051-3.883,4.549-6.574,8.588-6.574c4.041,0,7.54,2.691,8.591,6.574h0.896c4.859,0,8.813,3.953,8.813,8.813
			S74.346,72.101,69.487,72.101z M50.514,55.073c-4.529,0-8.214,3.685-8.214,8.214s3.685,8.214,8.214,8.214h18.973
			c4.529,0,8.213-3.685,8.213-8.214s-3.685-8.214-8.213-8.214h-1.129c-0.138,0-0.259-0.095-0.292-0.229
			c-0.908-3.736-4.225-6.346-8.066-6.346c-3.84,0-7.157,2.609-8.064,6.346c-0.033,0.134-0.153,0.229-0.292,0.229H50.514z"/>
	</g>
</g>
<g>
	<g>
		<path class="st1" d="M234.814,75.249c-0.05,0-0.1-0.012-0.146-0.037l-4.514-2.507c-1.307,0.448-2.675,0.675-4.068,0.675
			c-6.183,0-11.212-4.42-11.212-9.853c0-5.432,5.029-9.851,11.212-9.851s11.213,4.419,11.213,9.851c0,2.876-1.413,5.582-3.887,7.46
			l1.677,3.842c0.051,0.118,0.021,0.256-0.073,0.342C234.96,75.223,234.888,75.249,234.814,75.249z M230.184,72.078
			c0.051,0,0.101,0.013,0.146,0.037l3.855,2.142l-1.417-3.248c-0.056-0.129-0.015-0.28,0.1-0.363
			c2.436-1.768,3.833-4.362,3.833-7.118c0-5.101-4.761-9.251-10.613-9.251c-5.852,0-10.612,4.15-10.612,9.251
			c0,5.102,4.761,9.253,10.612,9.253c1.37,0,2.715-0.23,3.996-0.686C230.116,72.084,230.149,72.078,230.184,72.078z"/>
	</g>
	<g>
		<path class="st1" d="M205.957,70.04c-0.065,0-0.132-0.021-0.186-0.063c-0.095-0.075-0.136-0.2-0.104-0.316l1.502-5.408
			c-2.525-2.076-3.97-4.997-3.97-8.044c0-6.075,5.628-11.018,12.545-11.018c5.95,0,11.123,3.713,12.298,8.828
			c0.037,0.162-0.063,0.322-0.225,0.359c-0.162,0.041-0.323-0.063-0.359-0.225c-1.114-4.846-6.04-8.363-11.714-8.363
			c-6.587,0-11.945,4.674-11.945,10.418c0,2.924,1.421,5.73,3.898,7.7c0.095,0.074,0.135,0.198,0.103,0.314l-1.362,4.905
			l5.348-2.993c0.039-0.022,0.083-0.035,0.129-0.038c1.062-0.081,2.035,0.153,2.81,0.337c0.411,0.098,0.768,0.182,1.034,0.194
			c0.166,0.008,0.294,0.148,0.286,0.313c-0.008,0.166-0.146,0.282-0.313,0.286c-0.323-0.016-0.704-0.105-1.146-0.21
			c-0.718-0.171-1.603-0.38-2.562-0.327l-0.442,0.254l-5.479,3.058C206.058,70.027,206.007,70.04,205.957,70.04z"/>
	</g>
</g>
<g>
	<g>
		<path class="st1" d="M146.362,75.3c-2.606,0-4.779-1.055-5.321-2.543c-0.707,0.069-1.331,0.07-2,0.018
			c-0.554,1.478-2.726,2.525-5.314,2.525c-3.058,0-5.453-1.431-5.453-3.257c0-1.297,1.213-2.421,3.136-2.949
			c-0.55-0.588-1.036-1.23-1.452-1.916c-0.851,0.862-1.75,1.209-2.553,0.978c-1.684-0.479-2.303-3.313-1.411-6.449
			c0.681-2.39,2.094-3.779,3.23-4.547c-0.349-1.057-0.524-2.146-0.524-3.24c0-5.957,5.043-10.803,11.241-10.803
			c6.199,0,11.243,4.846,11.243,10.803c0,1.094-0.176,2.183-0.524,3.239c1.241,0.819,2.687,2.082,3.38,4.518
			c0.863,3.024,0.148,5.992-1.562,6.479c-0.798,0.229-1.688-0.109-2.53-0.956c-0.407,0.668-0.877,1.289-1.403,1.856
			c1.979,0.508,3.271,1.669,3.271,2.987C151.815,73.869,149.42,75.3,146.362,75.3z M141.257,72.132c0.139,0,0.261,0.095,0.292,0.232
			c0.307,1.332,2.376,2.336,4.813,2.336c2.631,0,4.854-1.217,4.854-2.657c0-1.118-1.364-2.152-3.316-2.516
			c-0.11-0.021-0.199-0.101-0.232-0.207c-0.032-0.107-0.003-0.224,0.077-0.302c0.737-0.724,1.372-1.553,1.887-2.467
			c0.048-0.085,0.135-0.142,0.231-0.151c0.104-0.012,0.193,0.028,0.257,0.103c0.75,0.866,1.546,1.256,2.194,1.076
			c1.219-0.349,1.99-2.79,1.149-5.739l0,0c-0.676-2.372-2.132-3.546-3.324-4.304c-0.118-0.074-0.168-0.222-0.122-0.354
			c0.377-1.062,0.567-2.16,0.567-3.264c0-5.626-4.774-10.203-10.644-10.203c-5.868,0-10.642,4.577-10.642,10.203
			c0,1.104,0.19,2.202,0.567,3.264c0.046,0.133-0.005,0.279-0.123,0.354c-1.078,0.68-2.504,1.984-3.174,4.333
			c-0.772,2.72-0.315,5.334,0.999,5.709c0.652,0.185,1.457-0.216,2.215-1.099c0.063-0.074,0.16-0.115,0.257-0.104
			c0.098,0.01,0.185,0.066,0.232,0.152c0.519,0.925,1.168,1.772,1.931,2.519c0.079,0.078,0.109,0.193,0.078,0.3
			s-0.119,0.187-0.228,0.209c-1.902,0.391-3.181,1.39-3.181,2.486c0,1.44,2.223,2.657,4.854,2.657c2.42,0,4.487-0.996,4.809-2.317
			c0.034-0.145,0.169-0.247,0.32-0.228c0.79,0.079,1.512,0.079,2.366-0.021C141.233,72.132,141.245,72.132,141.257,72.132z"/>
	</g>
</g>
<g>
	<g>
		<path class="st1" d="M18.61,53.127c-1.782,0-3.231-1.449-3.231-3.23s1.449-3.229,3.231-3.229c1.78,0,3.229,1.448,3.229,3.229
			S20.39,53.127,18.61,53.127z M18.61,47.267c-1.451,0-2.631,1.18-2.631,2.63s1.181,2.631,2.631,2.631
			c1.45,0,2.629-1.181,2.629-2.631S20.06,47.267,18.61,47.267z"/>
	</g>
	<g>
		<path class="st1" d="M22.26,75.265c-0.166,0-0.3-0.134-0.3-0.3c0-0.6-0.374-0.901-0.806-1.251
			c-0.482-0.391-1.028-0.832-1.028-1.717c0-0.886,0.546-1.327,1.028-1.718c0.432-0.35,0.806-0.651,0.806-1.25
			c0-0.598-0.374-0.899-0.806-1.248c-0.482-0.39-1.028-0.831-1.028-1.715s0.546-1.325,1.028-1.715
			c0.432-0.349,0.805-0.65,0.805-1.247c0-0.166,0.134-0.3,0.3-0.3s0.3,0.134,0.3,0.3c0,0.884-0.546,1.324-1.028,1.714
			c-0.432,0.349-0.806,0.65-0.806,1.248s0.374,0.899,0.806,1.248c0.482,0.39,1.028,0.831,1.028,1.715
			c0,0.885-0.546,1.326-1.028,1.717c-0.432,0.35-0.806,0.651-0.806,1.251c0,0.599,0.374,0.9,0.806,1.25
			c0.482,0.391,1.028,0.832,1.028,1.718C22.56,75.131,22.426,75.265,22.26,75.265z"/>
	</g>
	<g>
		<path class="st1" d="M15.108,75.646c-0.166,0-0.3-0.134-0.3-0.3V62.915C10.548,61.212,7.7,57.021,7.7,52.42
			c0-6.23,5.069-11.3,11.3-11.3s11.3,5.069,11.3,11.3c0,4.778-3.272,9.207-7.959,10.769c-0.158,0.054-0.327-0.032-0.379-0.189
			c-0.052-0.157,0.033-0.327,0.19-0.379c4.444-1.482,7.549-5.677,7.549-10.2c0-5.9-4.8-10.7-10.7-10.7s-10.7,4.8-10.7,10.7
			c0,4.423,2.779,8.445,6.914,10.01c0.117,0.044,0.194,0.155,0.194,0.28v12.636C15.408,75.512,15.273,75.646,15.108,75.646z"/>
	</g>
	<g>
		<path class="st1" d="M17.479,75.646c-0.166,0-0.3-0.134-0.3-0.3V63.104c0-0.166,0.134-0.3,0.3-0.3s0.3,0.134,0.3,0.3v12.241
			C17.779,75.512,17.645,75.646,17.479,75.646z"/>
	</g>
	<g>
		<path class="st1" d="M30,75.783H8c-0.166,0-0.3-0.134-0.3-0.3s0.134-0.3,0.3-0.3h22c0.166,0,0.3,0.134,0.3,0.3
			S30.166,75.783,30,75.783z"/>
	</g>
</g>
</svg>
