<svg id="图层_1" data-name="图层 1" xmlns="http://www.w3.org/2000/svg" xmlns:xlink="http://www.w3.org/1999/xlink" width="50" height="50" viewBox="0 0 50 50"><defs><style>.cls-1{fill:url(#未命名的渐变_2);}.cls-2{fill:none;stroke:#f7f8f8;stroke-miterlimit:10;stroke-width:1.3px;}.cls-3{fill:#f7f8f8;}</style><linearGradient id="未命名的渐变_2" y1="423" x2="50" y2="423" gradientTransform="translate(0 -398)" gradientUnits="userSpaceOnUse"><stop offset="0" stop-color="#f4823f"/><stop offset="0.47" stop-color="#f57b41"/><stop offset="1" stop-color="#f76d45"/></linearGradient></defs><title>icon_meg</title><path class="cls-1" d="M45,50H5a5,5,0,0,1-5-5V5A5,5,0,0,1,5,0H45a5,5,0,0,1,5,5V45A5,5,0,0,1,45,50Z"/><path class="cls-2" d="M41.1,23c0,.4-.6,1-.6,1L26.3,37.5a1.63,1.63,0,0,1-2.4,0L9.5,23.9a1.91,1.91,0,0,1-.4-1,2.2,2.2,0,0,1,.3-1.2l3.7-8c.3-1,.8-1.7,1.8-1.7H34.7c1,0,1.2.5,1.8,1.7,0,0,3.5,6.3,4.1,7.3A4.42,4.42,0,0,1,41.1,23Z"/><circle class="cls-3" cx="16.5" cy="22" r="2.1"/><circle class="cls-3" cx="24.9" cy="22.2" r="2.1"/><circle class="cls-3" cx="33.3" cy="22.4" r="2.1"/></svg>