<svg xmlns="http://www.w3.org/2000/svg" width="14" height="28" viewBox="0 0 14 28">
    <g fill="none" fill-rule="evenodd">
        <path fill="#999" d="M6.20949488,6.20949488 L6.20949488,-0.204718683 C6.20949488,-0.757003433 6.65721013,-1.20471868 7.20949488,-1.20471868 C7.76177963,-1.20471868 8.20949488,-0.757003433 8.20949488,-0.204718683 L8.20949488,6.20949488 L14.6237084,6.20949488 C15.1759932,6.20949488 15.6237084,6.65721013 15.6237084,7.20949488 C15.6237084,7.76177963 15.1759932,8.20949488 14.6237084,8.20949488 L8.20949488,8.20949488 L8.20949488,14.6237084 C8.20949488,15.1759932 7.76177963,15.6237084 7.20949488,15.6237084 C6.65721013,15.6237084 6.20949488,15.1759932 6.20949488,14.6237084 L6.20949488,8.20949488 L-0.204718683,8.20949488 C-0.757003433,8.20949488 -1.20471868,7.76177963 -1.20471868,7.20949488 C-1.20471868,6.65721013 -0.757003433,6.20949488 -0.204718683,6.20949488 L6.20949488,6.20949488 Z" transform="rotate(45 7.21 7.21)"/>
        <path fill="#666" d="M6.20949488,20.0394953 L6.20949488,13.6252817 C6.20949488,13.072997 6.65721013,12.6252817 7.20949488,12.6252817 C7.76177963,12.6252817 8.20949488,13.072997 8.20949488,13.6252817 L8.20949488,20.0394953 L14.6237084,20.0394953 C15.1759932,20.0394953 15.6237084,20.4872105 15.6237084,21.0394953 C15.6237084,21.59178 15.1759932,22.0394953 14.6237084,22.0394953 L8.20949488,22.0394953 L8.20949488,28.4537088 C8.20949488,29.0059936 7.76177963,29.4537088 7.20949488,29.4537088 C6.65721013,29.4537088 6.20949488,29.0059936 6.20949488,28.4537088 L6.20949488,22.0394953 L-0.204718683,22.0394953 C-0.757003433,22.0394953 -1.20471868,21.59178 -1.20471868,21.0394953 C-1.20471868,20.4872105 -0.757003433,20.0394953 -0.204718683,20.0394953 L6.20949488,20.0394953 Z" transform="rotate(45 7.21 21.04)"/>
    </g>
</svg>
