<svg id="图层_1" data-name="图层 1" xmlns="http://www.w3.org/2000/svg" xmlns:xlink="http://www.w3.org/1999/xlink" width="94.9" height="96" viewBox="0 0 94.9 96"><defs><style>.cls-1{fill:url(#未命名的渐变_3);}.cls-2{fill:url(#未命名的渐变_4);}.cls-3{fill:#fff;}</style><linearGradient id="未命名的渐变_3" x1="76.15" y1="400.5" x2="94.81" y2="400.5" gradientTransform="translate(0 -398)" gradientUnits="userSpaceOnUse"><stop offset="0" stop-color="#f45b59"/><stop offset="1" stop-color="#ff8451"/></linearGradient><linearGradient id="未命名的渐变_4" x1="0" y1="446" x2="88" y2="446" xlink:href="#未命名的渐变_3"/></defs><title>icon_meg</title><path class="cls-1" d="M94.7,5H76.2c-.1,0-.1-.1-.1-.2L82,0h6.1l6.8,4.8C94.8,4.9,94.8,5,94.7,5Z"/><path class="cls-2" d="M0,96V46S35.5,5.5,38,3s3-3,9-3H88Z"/><path class="cls-3" d="M19,51.9l1.8-3.6-3.4-3.4L16.3,46a35.84,35.84,0,0,1,1.8,3.2c-.5.1-1,.2-1.6.3a21.46,21.46,0,0,0-3.7-5.8L14,43c.5.7,1,1.3,1.5,2l1-1-3.2-3.2,1.1-1.1,3.2,3.2,1.8-1.8,1,1-1.8,1.8,3,3a21.4,21.4,0,0,0,1-2.2,7.7,7.7,0,0,0,1.3.9c-.4.8-.7,1.6-1.1,2.4l5.8,5.8-1.1,1.1-5.4-5.4c-.5,1.1-1,2.2-1.5,3.4Zm1.6-8.5,4-4-2.1-2.1-3.4,3.4-1-1,3.4-3.4-2-2,1.1-1.1,2,2,3.5-3.5,1,1-3.5,3.5,2.1,2.1,4.2-4.2,1,1-9.3,9.3Zm3.3,2.7,5.8-5.8-1.5-1.5,1.1-1.1,1.5,1.5,2.1-2.1,1,1-2.1,2.1L35,43.4A2.25,2.25,0,0,1,35,47l-2,2a9.74,9.74,0,0,0-1.5-1c.8-.7,1.5-1.3,2.1-1.9s.6-1.2-.1-1.9l-2.8-2.8-5.8,5.8Zm2.7,1.1.2-1.5c1.5.1,2.7.2,3.9.3l-.2,1.6C29.2,47.4,27.9,47.3,26.6,47.2Z"/><path class="cls-3" d="M47.2,23l.2-1.4a47.46,47.46,0,0,1,5-.3l-.2,1.6H50c-2.5,2.6-6.3,6.6-11.5,12l-1.1-1c2.1-2.1,4.2-4.3,6.3-6.3l-1.2-1.2-4.1,4.1.3.3-1,1L32.9,27,38,22l-1-1-6.3,6.3-.9-.9,6.3-6.3-1.2-1.2,1-1,1.2,1.2,6.3-6.3.9.9L38,20l1,1,5.2-5.2,4.4,4.4-5.2,5.2,1.2,1.2c1.2-1.2,2.4-2.4,3.5-3.6A2.72,2.72,0,0,0,47.2,23ZM35.7,27.9l4.1-4.1-1-1-4.1,4.1Zm1.8,1.8,4.1-4.1-1-1-4.1,4.1ZM44,17.6l-4.1,4.1,1,1L45,18.6ZM40,34.4l1.4-.6a24.73,24.73,0,0,1,1.5,4.3c-.5.1-1,.3-1.5.4A18.11,18.11,0,0,0,40,34.4Zm6.8-14-1-1-4.1,4.1,1,1ZM42.1,32.3l1.1-1.1,1.6,1.6c.6.6,1.2.5,1.9-.1l3-3c.7-.7.8-1.3.5-1.8A13.28,13.28,0,0,0,49,26.3q.3-.15,1.5-.6a11.57,11.57,0,0,1,1.1,1.6c.7,1,.4,2.1-.7,3.2L47.4,34a2.25,2.25,0,0,1-3.6,0Zm2.5-2.5.2-1.4a19.07,19.07,0,0,1,3.4,0L48,30C47,29.9,45.8,29.8,44.6,29.8ZM50.9,25l.2-1.4c1.1,0,2.5.2,4.2.3l-.2,1.6C53.9,25.3,52.5,25.2,50.9,25Z"/></svg>